<?xml version="1.0" encoding="utf-8" ?>
<svg xmlns="http://www.w3.org/2000/svg" xmlns:xlink="http://www.w3.org/1999/xlink" width="3148" height="3148">
	<path fill="#2B2D42" transform="scale(1.57382 1.57382)" d="M868.191 122.754C882.727 118.435 894.444 119.27 909.271 121.032C910.714 122.528 911.257 123.348 911.708 125.434C914.211 137.005 912.54 196.052 912.259 211.63L911.994 223.042L912.174 452.745C912.155 489.959 914.148 527.94 912.027 565.019L913.237 805.976C912.972 889.723 911.461 973.768 913.824 1057.49C923.032 1063.53 930.118 1068.54 932.536 1080.02C934.12 1087.54 933.67 1095.96 933.728 1103.63C949.417 1102.08 1037.64 1102.03 1040.98 1100.62C1041.69 1098.29 1041.52 1097.53 1043.84 1096.42C1050 1093.49 1060.85 1095.07 1067.58 1095.66C1069.7 1103.08 1071.29 1110.29 1072.38 1117.93C1072.28 1122.92 1071.76 1127.84 1071.23 1132.79C1076.21 1135.25 1082.21 1137.89 1085.58 1142.47C1087.9 1145.63 1089.28 1149.38 1088.42 1153.31C1087.65 1156.8 1085.26 1159.69 1082.11 1161.34C1078.81 1163.08 1074.94 1163.32 1071.4 1162.23C1063.93 1159.93 1061.25 1153.9 1058.09 1147.44L1048.26 1141.06L1045.32 1130.13C1029.71 1128.1 1013.54 1129.56 997.843 1129.98C977.51 1130.58 957.167 1130.84 936.824 1130.75C935.704 1133.57 934.571 1136.4 933.227 1139.12C928.667 1148.36 923.299 1150.87 914.048 1153.93C911.949 1175.32 912.898 1197.54 913.13 1219.04C913.609 1251.78 913.908 1284.54 914.025 1317.29L914.108 1675.58C957.922 1676.2 1001.82 1672.43 1045.56 1670.31C1128.25 1666.28 1211.33 1661.83 1294.09 1660.06C1310.31 1682.47 1323.07 1707.63 1337.15 1731.42C1347.66 1749.17 1366.64 1775.03 1372.53 1793.65C1376.6 1806.53 1374.55 1821.78 1373.94 1835.07C1299.5 1841.49 1224.8 1844.07 1150.2 1847.81L802.193 1864.45C799.225 1802.46 809.097 1741 812.974 1679.29C834.568 1676.86 856.289 1678.6 877.992 1675.39C877.923 1561.77 877.02 1448.14 875.283 1334.53L875.01 1226.8C875.03 1204.93 876.015 1182.77 874.188 1160.97C869.434 1154.07 865.397 1149.84 858.536 1145.17L858.308 1132.75C840.661 1132.66 822.983 1133.74 805.338 1134.11C792.559 1134.38 778.994 1133.66 766.318 1134.97C758.762 1135.76 752.388 1141.22 744.898 1142.04C741.484 1142.41 736.462 1141.71 733.985 1139.06C729.711 1134.48 730.463 1122.9 730.468 1116.97C730.888 1113.01 731.835 1109.29 732.814 1105.44C734.642 1105.17 736.466 1104.98 738.301 1104.77C748.325 1103.63 757.37 1106.79 767.256 1107.46C778.374 1108.21 790.027 1107.14 801.167 1106.66C816.458 1105.98 831.692 1105.45 847 1105.47C848.801 1105.42 850.218 1105.06 851.938 1104.54C853.826 1101.77 856.192 1097.36 859.319 1096.21C859.901 1096 860.489 1095.8 861.074 1095.6L861.978 1092.93C859.67 1084.05 860.24 1075.33 860.882 1066.27C864.66 1064.25 868.324 1062.26 871.815 1059.75C868.89 1047.49 871.078 1009.28 871.104 994.198L870.73 847.562L869.077 402.808L868.995 271.616C868.937 247.143 867.768 222.842 869.146 198.373L868.191 122.754Z"/>
	<path fill="#8D99AE" transform="scale(1.57382 1.57382)" d="M881.006 788.655L879.478 353.749L878.828 204.993C878.753 184.49 877.481 163.767 878.143 143.306C878.352 136.87 878.605 128.774 882.229 123.281L884.18 122.272C887.373 124.334 888.514 127.158 889.366 130.807C892.79 145.467 889.63 164.109 889.619 179.233L889.71 305.697L890.928 848.876L891.526 994.551C891.574 1016.71 892.981 1039.74 891.718 1061.8C891.52 1065.27 891.114 1067.57 889.406 1070.59L887.489 1071.71C885.361 1070.6 884.053 1068.99 883.233 1066.74C882.724 1065.34 882.483 1063.8 882.231 1062.34L880.171 1062.68L878.574 1066.01C875.742 1054.01 878.436 1036.08 878.259 1023.4C877.798 955.401 877.694 887.398 877.945 819.397C878.658 819.18 879.433 818.584 880.077 818.196C881.759 809.033 880.073 799.088 880.9 789.728L881.006 788.655Z"/>
	<path fill="#272627" transform="scale(1.57382 1.57382)" d="M881.006 788.655C882.489 808.673 881.702 829.215 881.727 849.298L881.956 959.804L882.67 1027.9C882.798 1038.67 884.486 1051.93 882.231 1062.34L880.171 1062.68L878.574 1066.01C875.742 1054.01 878.436 1036.08 878.259 1023.4C877.798 955.401 877.694 887.398 877.945 819.397C878.658 819.18 879.433 818.584 880.077 818.196C881.759 809.033 880.073 799.088 880.9 789.728L881.006 788.655Z"/>
	<path fill="#EDF2F4" transform="scale(1.57382 1.57382)" d="M871.606 192.879L871.501 191.05C870.808 177.618 868.79 136.606 872.008 125.809L872.953 125.616C877.528 140.654 874.777 244.631 874.838 270.019C875.019 345.805 877.668 421.917 875.8 497.684C876.619 524.133 875.698 550.804 876.059 577.303L877.945 819.397C877.694 887.398 877.798 955.401 878.259 1023.4C878.436 1036.08 875.742 1054.01 878.574 1066.01C878.507 1067.97 878.658 1067.1 877.997 1069.21C877.831 1069.74 877.649 1070.27 877.475 1070.79L878.159 1069.84L876.681 1070.38C873.093 1067.93 875.346 1061.98 872.872 1058.74L871.815 1059.75C868.89 1047.49 871.078 1009.28 871.104 994.198L870.73 847.562L869.077 402.808L868.995 271.616C868.937 247.143 867.768 222.842 869.146 198.373L871.606 192.879Z"/>
	<path fill="#697389" transform="scale(1.57382 1.57382)" d="M909.271 121.032C910.714 122.528 911.257 123.348 911.708 125.434C914.211 137.005 912.54 196.052 912.259 211.63L911.994 223.042L912.174 452.745C912.155 489.959 914.148 527.94 912.027 565.019C904.556 584.659 912.248 642.311 909.554 666.522L906.259 662.756C905.679 654.437 906.165 645.835 905.988 637.477C905.281 604.036 906.067 570.664 906.098 537.218L906.181 280.858L905.871 175.64C905.713 159.308 902.875 139.909 905.941 123.987L909.271 121.032Z"/>
	<path fill="#272627" transform="scale(1.57382 1.57382)" d="M909.271 121.032C910.714 122.528 911.257 123.348 911.708 125.434C914.211 137.005 912.54 196.052 912.259 211.63L911.994 223.042C903.373 215.479 914.883 137.83 905.941 123.987L909.271 121.032Z"/>
	<path fill="#697389" transform="scale(1.57382 1.57382)" d="M861.978 1092.93C863.606 1102.58 858.109 1104.11 865.405 1113.8C864.55 1119.32 863.795 1124.85 862.31 1130.25L861.585 1130.73C860.633 1127.5 859.655 1124.58 858.132 1121.57C857.839 1121.61 857.547 1121.66 857.254 1121.7C839.441 1123.84 819.942 1122.98 801.984 1123.13C788.796 1123.24 774.118 1124.46 761.082 1122.67C758.717 1122.34 757.354 1121.53 755.475 1120.11C751.296 1120.69 746.717 1121.61 742.503 1121.35C737.637 1121.05 735.54 1119.16 732.326 1115.66L730.468 1116.97C730.888 1113.01 731.835 1109.29 732.814 1105.44C734.642 1105.17 736.466 1104.98 738.301 1104.77C748.325 1103.63 757.37 1106.79 767.256 1107.46C778.374 1108.21 790.027 1107.14 801.167 1106.66C816.458 1105.98 831.692 1105.45 847 1105.47C848.801 1105.42 850.218 1105.06 851.938 1104.54C853.826 1101.77 856.192 1097.36 859.319 1096.21C859.901 1096 860.489 1095.8 861.074 1095.6L861.978 1092.93Z"/>
	<path fill="#8D99AE" transform="scale(1.57382 1.57382)" d="M806.45 1119.06C794.867 1119.28 774.618 1122.21 764.202 1119.72C761.983 1119.19 759.779 1118.95 758.581 1116.96C772.417 1111.48 814.044 1115.64 831.544 1115.29C842.621 1115.07 854.439 1113.01 865.405 1113.8C864.55 1119.32 863.795 1124.85 862.31 1130.25L861.585 1130.73C860.633 1127.5 859.655 1124.58 858.132 1121.57C841.697 1118.93 823.183 1119.83 806.45 1119.06Z"/>
	<path fill="#EDF2F4" transform="scale(1.57382 1.57382)" d="M865.405 1113.8C864.55 1119.32 863.795 1124.85 862.31 1130.25L861.585 1130.73C860.633 1127.5 859.655 1124.58 858.132 1121.57C841.697 1118.93 823.183 1119.83 806.45 1119.06C824.288 1115.26 842.811 1119.1 860.612 1116.92C863.718 1116.54 863.655 1116.22 865.405 1113.8Z"/>
	<path fill="#EDF2F4" transform="scale(1.57382 1.57382)" d="M732.326 1115.66C733.663 1112.66 734.568 1110.82 737.922 1109.65C742.72 1107.99 749.134 1109.11 754.094 1109.79L755.475 1120.11C751.296 1120.69 746.717 1121.61 742.503 1121.35C737.637 1121.05 735.54 1119.16 732.326 1115.66Z"/>
	<path fill="#272627" transform="scale(1.57382 1.57382)" d="M801.167 1106.66C816.458 1105.98 831.692 1105.45 847 1105.47C843.666 1109.71 839.537 1110.17 834.462 1110.75C826.548 1111.65 808.219 1112.69 801.543 1108.33L801.167 1106.66Z"/>
	<path fill="#EDF2F4" transform="scale(1.57382 1.57382)" d="M906.259 662.756L909.554 666.522C908.504 692.063 910.207 720.61 910.103 746.609C909.885 801.334 908.889 856.044 909.229 910.77C909.38 934.999 913.421 1057.55 908.351 1069.9L907.447 1069.66C904.362 1059.23 906.53 993.285 906.486 976.593L906.259 662.756Z"/>
	<path fill="#697389" transform="scale(1.57382 1.57382)" d="M1040.98 1100.62C1041.69 1098.29 1041.52 1097.53 1043.84 1096.42C1050 1093.49 1060.85 1095.07 1067.58 1095.66C1069.7 1103.08 1071.29 1110.29 1072.38 1117.93C1066.88 1118.08 1061.41 1118.95 1055.91 1118.97C1050.06 1119 1046.79 1117.89 1042.72 1113.72L1042.5 1112.32C1041.75 1114.42 1041.58 1115.29 1039.55 1116.53C1033.1 1120.46 969.216 1121.06 958.871 1118.94C955.706 1118.29 955.074 1117.15 953.305 1114.56L954.775 1114C962.395 1116.61 1032.07 1115.94 1040.52 1113.45L1041.75 1110.41L1041.98 1110.54L1042.82 1109.86L1042.92 1101.54L1040.98 1100.62Z"/>
	<path fill="#272627" transform="scale(1.57382 1.57382)" d="M1040.98 1100.62C1041.69 1098.29 1041.52 1097.53 1043.84 1096.42C1050 1093.49 1060.85 1095.07 1067.58 1095.66C1069.7 1103.08 1071.29 1110.29 1072.38 1117.93C1066.88 1118.08 1061.41 1118.95 1055.91 1118.97C1050.06 1119 1046.79 1117.89 1042.72 1113.72C1049.04 1113.99 1056.47 1115.24 1062.64 1113.63C1065.57 1112.86 1067.13 1112.06 1068.75 1109.5L1067.95 1107.37C1060.98 1101.06 1051.7 1101.33 1042.92 1101.54L1040.98 1100.62Z"/>
	<path fill="#8D99AE" transform="scale(1.57382 1.57382)" d="M953.305 1114.56C950.658 1113.91 949.246 1114.05 947.54 1111.86L947.585 1112.97L946.777 1112.12C955.087 1109.65 1030.09 1109.61 1041.75 1110.41L1040.52 1113.45C1032.07 1115.94 962.395 1116.61 954.775 1114L953.305 1114.56Z"/>
	<path fill="#EDF2F4" transform="scale(1.57382 1.57382)" d="M1290.97 1664.5C1299.3 1671.5 1356.11 1775.86 1365.51 1792.86C1284.76 1798.07 1203.96 1802.39 1123.11 1805.83C1076.81 1808.15 1029.97 1812.29 983.649 1812.66C961.249 1814.56 938.581 1815.23 916.124 1816.54C916.081 1792.14 915.858 1767.71 916.093 1743.31C916.21 1731.28 917.251 1719.01 916.729 1707.01C916.344 1698.14 914.553 1689.39 913.703 1680.56C926.894 1678.62 941.13 1679.2 954.494 1678.74L1030.87 1675.78L1290.97 1664.5Z"/>
	<path fill="#EDF2F4" transform="scale(1.57382 1.57382)" d="M852.133 1682.13C860.999 1681.26 870.078 1681.59 878.984 1681.56C878.738 1691.82 876.619 1702.01 876.375 1712.31C876.1 1723.9 876.776 1735.56 876.832 1747.16C876.942 1770.22 876.741 1793.29 877.645 1816.34C863.98 1817.88 849.932 1817.83 836.182 1818.31C826.289 1818.25 816.444 1818.89 806.573 1819.46C806.785 1802.05 809.253 1784.51 810.766 1767.18L817.571 1683.6C829.092 1683.7 840.635 1682.79 852.133 1682.13Z"/>
	<path fill="#8D99AE" transform="scale(1.57382 1.57382)" d="M883.564 1155.94C886.215 1155.99 887.849 1155.88 890.2 1157.26C892.449 1160.64 893.188 1163.87 893.355 1167.93C893.903 1181.24 893.065 1194.76 892.845 1208.07C892.685 1226.74 892.637 1245.4 892.701 1264.07L893.291 1475.62L893.647 1623.56C893.751 1650.67 895.482 1678.99 893.134 1705.94C891.412 1706.06 891.088 1705.86 889.587 1705.14C885.884 1700.28 886.258 1693.72 885.981 1687.85C884.746 1661.69 885.713 1635.13 885.582 1608.93L884.519 1453.87L883.511 1306.37C882.922 1256.26 881.679 1206.02 883.564 1155.94Z"/>
	<path fill="#EDF2F4" transform="scale(1.57382 1.57382)" d="M908.677 1164.93L909.133 1165.39C912.272 1175.5 910.231 1216.38 910.442 1229.78C911.592 1353.59 911.512 1477.41 910.2 1601.21C909.987 1634.57 913.368 1669.13 909.665 1702.28C909.34 1702.02 909.086 1701.83 908.809 1701.45C907.548 1699.71 907.424 1697.38 907.342 1695.31C906.91 1684.31 907.71 1673.1 907.696 1662.06L907.282 1590.23L907.067 1357.22C907.37 1323.96 907.324 1290.7 906.929 1257.44C906.648 1226.7 905.682 1195.56 908.677 1164.93Z"/>
	<path fill="#8D99AE" transform="scale(1.57382 1.57382)" d="M908.666 1078.87C914.006 1077.3 919.276 1075.69 924.506 1073.78L921.353 1087.27C917.807 1088.03 914.262 1088.86 910.686 1089.46C903.656 1090.53 896.404 1091.88 889.272 1091.88C876.935 1091.88 871.302 1084.39 863.229 1076.59C878.804 1076.93 892.973 1081.43 908.666 1078.87Z"/>
	<path fill="#EDF2F4" transform="scale(1.57382 1.57382)" d="M886.966 1714.6C887.234 1714.86 887.548 1715.08 887.77 1715.37C895.78 1726.13 892.732 1799.94 892.406 1818.08C891.933 1817.87 891.389 1817.77 890.989 1817.44C886.06 1813.41 886.778 1725.09 886.966 1714.6Z"/>
	<path fill="#8D99AE" transform="scale(1.57382 1.57382)" d="M877.262 1145.25C876.144 1144.43 874.521 1143.43 873.689 1142.33C872.164 1140.32 872.083 1139.5 872.374 1137.2C873.026 1136.5 873.412 1136 874.296 1135.49C877.214 1133.83 880.816 1134.78 883.919 1135.29L884.905 1135.37C893.014 1135.95 912.267 1133.49 918.47 1138.87C918.717 1139.09 918.9 1139.37 919.116 1139.61C917.788 1142.58 914.59 1143.89 911.602 1144.95C901.21 1148.67 888.006 1146.47 877.262 1145.25Z"/>
	<path fill="#272627" transform="scale(1.57382 1.57382)" d="M907.986 1721.2C912.562 1727.89 911.318 1803.18 909.886 1815.87L909.324 1816.02L908.356 1815.04C907.744 1794.43 907.138 1773.89 907.026 1753.27C906.969 1742.82 906.267 1731.52 907.986 1721.2Z"/>
	<path fill="#8D99AE" transform="scale(1.57382 1.57382)" d="M934.555 1111.73C937.291 1111.63 939.971 1111.55 942.708 1111.72C943.442 1113.73 943.06 1113.01 944.151 1114.76C944.399 1115.16 944.661 1115.56 944.915 1115.95L943.876 1117.19C941.527 1117.49 939.322 1117.72 936.953 1117.46C934.296 1117.15 932.103 1116.59 929.516 1117.6C928.956 1117.82 928.413 1118.08 927.861 1118.32C922.021 1118.69 916.226 1119.14 910.861 1116.29L911.254 1115.31C918.855 1112.26 926.488 1112.06 934.555 1111.73Z"/>
</svg>
