<?xml version="1.0" encoding="utf-8" ?>
<svg xmlns="http://www.w3.org/2000/svg" xmlns:xlink="http://www.w3.org/1999/xlink" width="824" height="1753">
	<path transform="scale(0.549984 0.549984)" d="M818.372 60.9439C821.051 63.3179 824.045 65.4253 825.392 71.3758C825.941 73.8003 825.481 74.9142 825.151 77.338C819.567 88.4371 810.442 88.2475 803.236 88.5441C803.158 123.021 803.321 157.602 802.886 192.063C815.75 191.145 846.45 183.459 855.522 202.147C858.783 208.864 860.454 218.174 860.447 227.771C860.441 238.466 858.37 248.687 854.719 256.043C848.354 268.859 840.04 268.731 831.848 268.857L831.751 1595.39L831.896 2069.36L832.248 2204.43C832.263 2231.57 831.612 2259.39 832.724 2286.42C822.496 2293.95 811.697 2294.56 800.976 2295.51C800.994 2312.06 800.822 2328.72 801.149 2345.25C809.225 2344.1 818.773 2342.28 825.272 2354.76C826.858 2357.8 828.093 2361.52 829.316 2365.22L841.116 2369.57C840.78 2349.51 838.064 2295.12 844.462 2279.65C850.974 2263.91 884.814 2267.41 894.564 2268.19C904.018 2268.94 913.119 2270.32 921.446 2280.82C928.149 2304.48 925.237 2329.55 925.46 2355.66C948.268 2355.37 981.095 2348.39 998.59 2386.14C1002.51 2394.59 1004.93 2405.18 1004.61 2417.21C1004.29 2429.56 1000.93 2440.13 996.629 2448C978.332 2481.5 947.334 2476.89 924.798 2474.9C924.416 2490.4 925.642 2539.59 920.725 2548.33C911.508 2564.72 877.232 2564.96 865.515 2561.98C856.492 2559.68 848.437 2553.55 841.51 2540.76C840.543 2517.63 840.896 2494.32 840.673 2471.12C836.288 2472.04 831.886 2472.72 827.585 2474.84C826.461 2483.08 825.746 2491.09 821.933 2495.69C816.203 2502.61 807.046 2498.87 800.581 2499.09C800.793 2565.96 800.43 2632.83 799.492 2699.68C798.971 2737.05 797.891 2774.35 797.435 2811.73C796.941 2852.2 798.365 2957.53 793.241 2991.18C788.648 3021.33 767.367 3112.98 754.695 3127.25C752.131 3130.14 749.608 3130.68 746.869 3128.49C733.388 3117.71 715.527 3039.64 709.732 3010C707.193 2997.02 704.846 2983.7 704.174 2969.63C702.661 2937.93 704.651 2905.67 703.972 2873.84C701.502 2748.77 699.832 2623.63 698.961 2498.47C692.893 2498.3 683.527 2500.6 678.264 2493.72C675.971 2485.6 678.906 2472.77 674.11 2468.81C671.868 2469.77 671.763 2469.29 670.481 2473.22C669.882 2484.16 672.576 2507.58 668.911 2515.53C661.669 2531.24 642.043 2529.95 632.611 2527.54C624.738 2525.52 617.838 2520.74 610.769 2513.24C611.222 2504.08 611.606 2494.9 611.923 2485.72C602.734 2474.76 595.032 2465.36 587.213 2450.08C569.155 2450.37 509.021 2455.48 496.53 2429.6C494.968 2426.36 494.749 2424.03 494.45 2419.57C495.697 2412.3 497.937 2409.12 501.155 2405.77C522.449 2383.59 564.067 2390.5 588.48 2390.56C595.621 2377.03 602.162 2368.36 611.273 2362.04C611.12 2352.75 609.933 2335.72 612.711 2327.91C617.399 2314.73 632.992 2314.86 640.044 2314.51C647.785 2314.12 664.168 2313.34 669.958 2325.91C672.791 2332.06 671.419 2353.21 671.326 2361.97C680.715 2350.63 688.036 2346.94 698.685 2344.13C697.991 2327.9 697.143 2311.7 696.141 2295.55C689.496 2294.82 673.648 2295.88 668.909 2286.5C667.354 2261.8 667.621 2236.07 667.546 2211.19C667.473 2169.29 667.614 2127.38 667.968 2085.49C668.673 1990.96 668.927 1896.41 668.73 1801.86L668.982 686.089C668.98 648.008 669.644 272.807 668.566 269.859C668.283 269.084 667.858 268.603 667.503 267.975L666.353 264.193C671.678 261.481 678.335 263.855 683.875 263.928L683.386 262.962L684.296 263.969L682.249 264.151C681.725 266.248 681.585 267.016 681.449 269.469C680.47 273.06 680.297 272.864 680.771 276.823C687.174 287.77 705.277 273.459 710.592 284.593L710.578 286.257C702.289 294.94 686.479 277.568 679.229 292.443C679.154 294.525 678.797 295.838 679.57 297.453C684.574 307.91 714.413 300.768 722.653 300.574C729.01 300.425 735.507 300.858 741.805 302.807L740.767 303.261C729.26 308.188 684.692 301.828 678.955 314.419L678.866 317.879C681.706 323.721 688.232 323.114 692.043 322.975C697.98 322.757 706.222 319.239 711.578 324.821L711.294 327.025C701.428 335.507 688.773 320.762 679.82 330.153C679.122 333.946 678.982 334.764 679.238 338.763C685.772 349.117 705.908 337.155 712.797 346.33C701.993 351.969 689.795 350.216 678.874 346.689L678.868 367.381L680.014 367.798C698.904 374.499 763.379 355.68 774.865 370.88C765.764 380.922 694.019 374.527 678.531 374.304C678.604 382.298 678.481 390.54 678.869 398.487C690.802 398.307 702.773 391.768 714.517 399.719L715.262 401.651C713.837 405.048 712.239 405.955 710.168 406.194C701.437 407.203 687.314 395.98 679.962 407.243L678.767 411.694C679.136 414.437 678.813 414.412 679.889 415.488C685.293 420.898 708.656 415.094 718.053 418.938C707.531 421.678 687.568 420.625 679.173 427.56L678.421 430.585C678.746 432.754 678.636 433.99 679.671 435.122C687.382 443.557 707.034 429.183 712.73 438.877L712.514 441.239L709.545 444.992C700.762 448.007 691.986 445.297 683.153 445.656C681.034 445.341 680.587 444.728 678.853 447.203C678.034 450.92 677.441 454.23 678.133 458.366C678.495 460.524 679.114 462.409 680.146 463.097C687.401 467.937 706.111 464.305 714.711 464.681C722.999 465.044 731.116 466.487 739.342 468.618C719.993 477.566 698.013 474.841 678.282 473.219C678.285 481.843 678.15 490.577 678.415 499.182C687.162 494.224 705.109 490.384 713.561 497.333L714.504 499.867C704.756 512.4 681.547 489.928 678.768 512.937C679.353 516.231 679.446 517.723 681.188 518.994C691.074 526.207 704.674 510.266 714.031 520.901L713.707 522.45C703.151 529.858 689.28 526.162 678.181 525.793C678.07 533.778 677.345 543.615 678.896 551.061L677.912 557.359C677.759 567.764 677.639 578.102 677.776 588.511C689.285 585.49 704.826 579.669 715.576 590.004L715.605 591.458C707.603 596.323 681.678 589.576 677.988 599.998C678.279 604.189 678.263 605.466 679.954 608.239C688.656 622.516 707.32 598.704 714.649 614.599C714.074 616.662 713.503 616.752 712.45 617.344C704.079 622.051 683.421 611.069 678.101 625.866C677.941 630.067 677.961 630.103 679.061 633.617C681.064 635.717 682.881 636.609 685.068 637.497L684.561 640.327C682.578 640.738 680.804 640.749 678.815 640.486L677.593 642.11L677.481 645.588C677.587 651.981 677.375 659.055 678.571 665.007C689.099 672.529 709.927 657.657 718.679 670.628C709.342 680.102 683.94 662.012 678.187 680.259L678.287 687.077C678.08 690.256 677.648 693.279 677.416 696.39C677.387 696.774 677.42 697.167 677.421 697.556C677.566 703.093 677.044 715.689 679.026 719.567C681.074 724.248 681.907 724.753 684.882 724.895C686.159 724.931 687.436 724.934 688.712 724.904L680.224 729.559C678.63 731.707 678.226 731.734 677.797 735.836C677.086 742.623 677.653 751.532 677.703 758.517C691.299 757.162 705.246 754.955 718.494 763.149C715.732 764.472 712.854 766.019 710.02 766.324C700.785 767.318 685.991 759.887 678.164 771.558C677.578 775.143 677.7 775.803 678.097 779.557C685.622 792.36 705.493 777.39 713.712 787.378C707.79 793.613 684.104 792.553 676.814 791.412L675.57 793.355C674.778 806.971 674.691 826.986 675.759 840.406L676.728 842.638L678.382 841.672C687.536 839.713 707.756 834.882 715.583 845.324L715.922 846.992C709.671 857.43 683.593 838.321 677.385 855.661C677.748 859.844 678.718 862.602 680.393 865.015C688.386 876.529 710.684 858.828 714.573 870.48C706.239 880.344 687.677 874.544 677.805 875.726L677.746 898.426C692.834 897.289 763.661 890.64 773.262 904.231C764.403 912.804 693.771 907.465 677.673 909.231L677.637 940.417C686.665 938.752 709.253 932.534 716.831 942.258C715.42 946.098 712.345 947.855 710.06 948.22C702.994 949.348 683.867 942.163 678.616 952.382C677.795 953.981 677.882 956.048 677.701 958.233C678.505 961.491 679.049 963.252 680.786 964.426C682.125 965.33 683.682 965.385 685.071 965.677C685.46 965.758 685.848 965.866 686.237 965.944C695.547 967.819 706.272 960.896 715.225 966.582C707.33 979.098 680.465 967.981 677.985 975.193C677.593 976.332 677.518 977.834 677.285 979.155C677.536 983.252 677.553 987.662 678.705 991.121C678.626 993.271 678.61 995.586 678.427 997.702C677.566 1002.7 676.845 1008.81 677.821 1013.95C678.257 1016.25 678.918 1016.38 679.88 1017.44C689.397 1016.55 705.004 1010.68 713.689 1019.87L714.258 1022.74C712.41 1026.48 707.507 1026.02 704.984 1025.87C696.621 1025.37 686.405 1019.06 679.135 1030.21L678.329 1033.77C679.105 1037.94 680.116 1039.88 682.109 1041.55C691.713 1049.59 704.595 1035.51 714.495 1043.86L715.045 1046.63C712.323 1052.3 698.196 1051.85 693.798 1051.74C688.513 1051.61 683.301 1049.89 678.084 1048.24C677.98 1057.36 678.047 1066.7 677.657 1075.77C677.556 1081.47 678.949 1081.8 678.021 1087.07C677.699 1094.87 677.61 1102.35 677.688 1110.17C684.057 1108.77 705.421 1104.09 710.588 1111.94C710.794 1112.26 710.959 1112.68 711.144 1113.05C710.449 1115.63 709.479 1115.72 708.145 1116.45C698.204 1121.91 688.028 1106.91 678.48 1120.75C678.034 1123.02 677.637 1123.42 678.142 1125.86C679.139 1130.68 681.387 1132.47 683.493 1134.54C681.375 1138.4 679.747 1136.02 677.56 1138.92C677.625 1146.13 677.522 1153.53 677.805 1160.71C678.372 1163.6 678.902 1164.94 678.685 1168.1C676.678 1174.84 677.281 1183.53 677.386 1191.24C688.572 1189.81 699.46 1191.55 710.582 1193.74C710.3 1193.85 710.019 1193.98 709.736 1194.08C702.446 1196.86 682.09 1193.78 677.466 1204.18L677.6 1207.14C685.459 1218.6 705.536 1200.22 711.6 1212.12L711.018 1215.86L712 1214L711.316 1211.6L710.17 1216.5C701.996 1220.22 678.777 1217.65 678.314 1219.24C676.934 1223.94 677.398 1231.51 677.813 1236.7C681.23 1241.56 749.495 1235.59 760.927 1237.56C763.888 1238.07 766.701 1239.82 769.514 1241.76C766.875 1243.98 764.025 1246.7 761.196 1247.45C751.847 1249.94 741.718 1246.58 732.29 1246.21C725.229 1245.93 680.808 1246.05 677.783 1250.03C677.343 1254.66 677.188 1257.68 677.702 1262.41C678.435 1264.21 678.6 1265.62 679.782 1265.83C688.388 1267.38 706.056 1257.54 713.467 1268.9L713.439 1271.49C705.286 1282.16 685.328 1262.09 678.317 1278.02C677.904 1282.39 677.866 1282.58 678.76 1286.59C686.763 1297.95 703.195 1288.81 712.54 1288.91C718.203 1288.96 723.57 1290.98 729.064 1293.75C713.445 1302.6 694.08 1301.1 677.963 1298.7C677.9 1305.7 678.082 1313.14 677.318 1319.97C676.328 1324.42 676.526 1329.04 677.2 1333.63C677.833 1341.86 677.81 1349.98 677.828 1358.29C688.969 1359.05 702.517 1352.02 712.793 1362.44L712.784 1363.86C703.126 1369.3 684.798 1357.08 677.468 1369.96C676.975 1373.59 677.139 1373.4 678.005 1376.77C685.489 1385.96 700.887 1379.2 709.311 1379.89C713.406 1380.22 717.232 1381.95 721.177 1384.17C707.084 1390.7 692.164 1388.95 677.802 1388.38C677.711 1394.48 677.26 1401.03 678.529 1406.67C679.061 1407.61 679.489 1408.91 680.126 1409.48C681.851 1411.03 694.481 1408.27 697.243 1408.08C711.943 1407.08 729.842 1405.42 744.029 1413.55C725.535 1422.66 696.636 1421.52 677.843 1416.58L677.81 1438.63C686.946 1436 704.288 1431.63 712.599 1441.57C705.375 1453.49 680.04 1431.61 678.253 1455.15C679.102 1458.79 680.043 1460.55 681.822 1461.97C690.181 1468.62 710.154 1451.76 715.983 1462.97L716.002 1465.52C711.55 1474.14 696.012 1471.99 690.3 1471.38C686.118 1470.88 681.939 1470.24 677.766 1469.46C677.663 1477.18 677.786 1485.26 677.247 1492.89C676.789 1495.49 676.749 1497.43 676.592 1500.16C676.12 1508.33 674.796 1522.13 676.837 1529.6C689.782 1528.16 703.195 1524.21 715.789 1532.29C717.176 1533.15 718.559 1534.04 719.939 1534.94L718.624 1535.23C710.187 1536.91 684.376 1530.19 679.178 1540.74L679.392 1543.14C687.15 1550.8 705.522 1538.11 711.062 1546.78L710.678 1548.13C710.362 1548.21 710.045 1548.3 709.728 1548.37C702.256 1550.08 681.848 1545.54 676.687 1557.3C677.517 1560.49 678.781 1561.28 680.401 1562.13C689.766 1567.01 704.462 1560.92 714.636 1562.73C713.987 1566.04 714.017 1567.02 712.37 1568.44C702.53 1576.9 687.823 1568.49 677.322 1568.49L677.526 1593.05C698.529 1586.47 720.484 1586.2 741.252 1596.13C723.521 1602.52 695.644 1592.23 682.056 1600.08C679.759 1601.4 679.125 1602.68 677.718 1606.69C677.494 1610.92 677.472 1611.29 678.404 1615.03C685.294 1622.45 699.585 1616.81 707.482 1617.66C710.807 1618.02 714.192 1619.57 717.455 1620.96C709.771 1622.04 682.611 1618.5 678.166 1627.85C677.997 1628.21 677.87 1628.65 677.722 1629.04C678.01 1631.75 677.675 1631.02 678.752 1632.38C684.589 1639.77 712.395 1639.98 721.303 1642.76C706.52 1646.97 692.423 1645.22 677.649 1642.52C677.58 1651.74 676.368 1668.49 679.115 1675.46C679.498 1679.83 679.129 1680.03 678.034 1683.9C677.972 1691.57 677.935 1699.24 677.922 1706.9C689.256 1706.28 704.289 1702 715.059 1710.95L714.936 1712.78C707.863 1715.9 682.863 1711.22 679.413 1720.95C680.536 1725.76 684.114 1727.99 686.374 1729.56C695.017 1735.54 705.216 1726.85 714.564 1731.66L713.922 1730.87L713.776 1732.78C703.298 1737.87 687.361 1728.37 678.467 1741.95L678.272 1743.67C687.374 1754.96 708.824 1739.4 715.352 1748.25L714.987 1748.78L713.634 1746.76L715.42 1748.12C705.757 1758.53 685.317 1747.29 678.675 1757.17C678.601 1760.88 678.64 1763.66 679.109 1767.25C678.745 1770.04 678.463 1772.53 677.875 1775.14L678.07 1797.22C685.879 1795.73 707.326 1791.23 713.882 1800.31L713.284 1802.04C705.218 1804.38 683.802 1797.17 678.623 1809.95L678.625 1812.61C685.404 1822.06 714.694 1811.09 717.234 1822.14C709.631 1833.83 687.495 1826.51 677.701 1826.75C677.639 1834.84 677.797 1843.24 677.318 1851.27L676.701 1854.13C677.668 1857.32 677.087 1856.1 678.343 1858L676.917 1859.9C677.202 1862.59 676.938 1861.69 677.382 1862.93C677.542 1871.32 677.685 1879.67 677.633 1888.08C688.304 1886.86 703.502 1881.62 713.654 1890.29C712.453 1893.25 709.941 1893.3 708.13 1893.63C699.473 1895.24 687.634 1891.07 679.772 1899.25L679.018 1901.82C680.08 1905.59 681.17 1907.2 683.221 1908.18C692.001 1912.39 708.223 1908.3 718.249 1910.09L711.528 1914.67C701.027 1915.2 689.529 1912.5 679.31 1918.3L678.757 1920C687.414 1930.31 704.287 1923.87 713.938 1923.67L715.068 1927.38C714.281 1930.39 714.195 1930.47 712.702 1931.5C703.262 1937.96 686.112 1921.48 678.67 1937.08C678.499 1939.66 678.291 1942.26 678.178 1944.85C678.147 1949.71 677.78 1951.82 676.748 1955.97L677.352 1959.67C677.676 1967.87 677.791 1975.87 677.752 1984.1C686.332 1983.3 707.435 1979.01 714.551 1985.84C706.28 1994.27 682.527 1984.73 677.718 1997.96C678.212 2001.64 678.385 2002.26 680.165 2004.03C683.701 2007.53 709.059 2004.28 717.644 2007.36C704.79 2017.16 691.057 2014.07 677.618 2013.57C677.623 2020.46 677.444 2027.59 677.822 2034.42C676.757 2046.68 673.054 2038.27 676.914 2061.12C677.919 2064.1 678.033 2065.38 679.812 2066.07C683.493 2067.49 688.268 2066.26 692.068 2066.19C699.231 2066.07 706.144 2066.47 713.249 2068.56L712.276 2068.85C703.023 2071.43 684.662 2067.65 677.262 2078.16C677.62 2081.33 677.228 2080.31 678.547 2082.1C687.85 2094.72 705.56 2087.66 716.401 2089.4C711.327 2091.98 706.519 2094.05 701.29 2094.35C694.734 2094.72 682.758 2091.26 676.833 2095.03C672.898 2106.98 677.636 2116.77 675.569 2127.24C675.361 2138.3 674.466 2156.72 677.808 2165.78C678.748 2168.33 680.107 2169.25 681.593 2169.35C682.514 2169.41 683.444 2169.33 684.365 2169.25C697.232 2168.84 710.012 2166.12 722.749 2170.9C709.194 2177.49 691.17 2177.24 677.27 2174.73L677.256 2280.46C710.731 2287.08 744.374 2289.06 777.971 2286.39C792.633 2285.4 807.041 2284.56 821.623 2280.72C822.247 2262.06 821.774 2242.69 821.772 2223.96L821.763 2119.58L821.859 1789.32L821.738 902.254L821.842 636.251C821.838 580.721 821.467 525.075 821.999 469.558L822.375 467.888L822.752 468.382C823.863 445.554 823.077 421.289 823.076 398.23L823.052 263.835C828.755 263.988 836.164 267.178 840.555 258.298C841.158 257.632 841.756 256.94 842.363 256.288C843.315 255.264 844.306 254.408 845.177 253.065C848.082 248.586 849.898 239.355 850.351 232.015C850.796 224.793 849.902 217.86 847.675 212.312C844.486 204.363 839.903 203.277 835.298 202.189L834.162 200.941C826.331 192.214 799.526 202.589 788.734 197.328L789.856 195.586L791.141 196.038L792.836 193.323C796.121 177.16 794.129 109.637 794.034 88.5417C764.994 87.1413 735.778 88.5163 706.717 88.4173L706.75 114.733C703.568 122.764 704.447 183.073 704.493 196.889C698.922 197.113 665.921 194.987 664.254 198.944C664.057 199.41 663.914 199.967 663.744 200.478C659.906 201.763 656.603 202.177 654.032 209.161C651.632 215.679 650.826 224.454 651.375 232.54C651.88 239.991 653.745 248.974 656.669 253.551C658.681 256.7 661.474 258.029 663.861 259.277L663.334 261.979C659.261 262.73 655.102 261.959 651.075 262.988C648.252 260.971 645.757 258.516 644.032 253.076C639.677 239.342 642.866 216.194 644.471 201.324C660.893 184.016 678.303 190.319 695.886 192.386C696.386 158.345 696.059 124.028 696.124 89.9553C690.268 88.3113 682.037 86.9353 677.383 78.2726C675.915 75.5392 675.657 74.1466 675.61 70.1008C676.898 66.3668 678.035 64.6598 679.824 62.1779L680.659 62.3788C683.203 62.9508 685.379 62.8055 687.915 62.3973C689.184 62.1931 688.709 62.1981 690.078 63.2611L688.38 67.8423L687.658 71.6013C688.844 75.3155 689.778 75.8994 691.836 76.8384C705.356 83.0082 730.591 78.8873 745.204 78.9806C761.973 79.0877 778.92 81.4437 795.664 79.636C800.469 79.1173 805.023 77.9054 809.695 75.4615L810.967 73.1564C810.458 69.982 810.271 69.7858 809.005 67.7197L807.793 64.2105C806.307 63.7389 805.479 63.5267 804.318 61.4206L804.654 60.6667C809.296 61.5886 813.72 61.426 818.372 60.9439ZM691.414 2485.74C695.763 2494.91 705.045 2486.96 707.792 2495.55C707.622 2498.61 707.361 2499.85 707.918 2502.76L708.034 2504.77C710.563 2551.72 709.758 2600.84 710.315 2648.11C711.168 2720.46 712.608 2792.72 713.21 2865.1C713.367 2884.01 713.802 2902.91 713.861 2921.82C713.923 2941.67 712.7 2965.68 714.892 2985.01C717.952 3011.99 740.441 3093.9 750.25 3113.17C756.682 3099.86 761.038 3081.61 765.689 3065.45C780.792 3012.96 786.529 2996.07 786.953 2932.18L790.137 2645.57C790.637 2608.89 790.234 2571.79 791.227 2535.19C794.634 2527.17 793.73 2503.66 793.744 2492.93C797.44 2492.93 801.586 2493.97 805.224 2492.81C807.302 2492.14 807.306 2491.6 808.415 2488.08C810.453 2487.89 813.965 2487.65 815.366 2483.92C818.027 2476.82 817.393 2452.63 817.454 2443.78C817.532 2432.32 817.917 2369.23 816.127 2362.2C815.712 2360.57 814.912 2359.54 814.304 2358.21L814.638 2356.19C810.539 2356.25 808.398 2352.35 804.698 2351.73C800.094 2350.96 795.437 2352.11 790.797 2351.45C791.236 2349.4 791.435 2348.14 791.498 2345.84C791.516 2345.2 791.512 2344.57 791.519 2343.93C790.801 2328.29 791.33 2311.67 791.332 2295.91C762.55 2298.52 733.859 2297.28 705.067 2296.63L707.758 2321.75C707.45 2331.44 707.402 2340.87 707.554 2350.57C703.265 2350.79 698.731 2349.78 695.166 2355.66L688.16 2358.09C686.789 2376.45 684.061 2468.71 687.581 2482.15C688.172 2484.4 690.275 2484.9 691.414 2485.74ZM657.915 2514.51C661.659 2503.84 660.984 2482.17 660.285 2469.09C660.084 2465.35 660.027 2464.82 658.754 2462.46C648.484 2457.64 631.557 2459.81 620.887 2460.96C619.97 2474.62 618.267 2492.93 622.292 2504.95C624.752 2512.29 628.862 2515.48 632.907 2516.76C640.701 2519.22 650.221 2517.81 657.915 2514.51ZM621.594 2365.58C620.716 2368.22 619.979 2370.41 619.784 2373.69C618.855 2389.29 618.563 2432.85 619.765 2447.39C619.842 2448.32 620.054 2449.75 620.167 2450.58C631.423 2456.16 647.576 2452.73 659.391 2452.53L660.924 2450.78C661.95 2436.57 662.201 2352.19 660.389 2340.57C660.377 2335.94 660.686 2333.57 659.442 2329.68C649.661 2324.57 632.159 2325.76 622.153 2329C622.05 2340.45 622.728 2354.56 621.594 2365.58ZM840.626 2457.18C842.53 2433.21 841.338 2405.51 841.194 2381.22L826.936 2380.64C825.188 2404.75 826.403 2432.46 826.509 2456.9C831.295 2457.77 835.831 2457.78 840.626 2457.18Z"/>
	<path fill="#2B2D42" transform="scale(0.549984 0.549984)" d="M924.91 2366.38C944.436 2365.61 971.53 2359.39 987.193 2390.27C990.327 2396.44 993.718 2405.36 993.772 2414.93C993.841 2427.27 988.386 2436.58 984.597 2444.43C965.858 2465.49 945.665 2464.41 925.068 2464.21C924.809 2431.6 924.757 2398.99 924.91 2366.38Z"/>
	<path fill="#2B2D42" transform="scale(0.549984 0.549984)" d="M547.79 2402.53C561.101 2400.02 574.964 2402.46 588.299 2403.75C588.662 2415.12 588.516 2426.61 588.502 2438.01C575.949 2441.73 562.154 2439.94 549.503 2438.72C537.162 2436.86 520.49 2437.47 509.223 2426.22C507.59 2424.59 506.704 2423.64 506.129 2419.87C506.433 2419.11 506.68 2418.22 507.041 2417.58C513.604 2405.9 538.748 2403.61 547.79 2402.53Z"/>
	<path fill="#8D99AE" transform="scale(0.549984 0.549984)" d="M856.035 2433.85C863.997 2433.26 908.945 2430.14 913.869 2435.7C914.618 2441.25 914.702 2445.5 914.567 2451.25C913.466 2455.29 913.554 2455.06 911.44 2456.38C891.619 2456.67 871.798 2456.6 851.977 2456.19C851.8 2450.09 851.581 2444.46 852.148 2438.42C853.585 2434.65 853.772 2434.9 856.035 2433.85Z"/>
	<path fill="#8D99AE" transform="scale(0.549984 0.549984)" d="M852.193 2353.9C861.249 2353.78 908.995 2350.19 913.746 2355.2C915.201 2362.36 914.325 2369.02 913.288 2376.14C892.85 2376.6 872.41 2376.56 851.972 2376.02L852.193 2353.9Z"/>
	<path fill="#8D99AE" transform="scale(0.549984 0.549984)" d="M852.226 2461.46C872.88 2460.6 893.516 2462.36 914.181 2461C914.358 2468.1 914.134 2474.93 913.887 2481.99C893.18 2482.98 872.534 2483.82 851.823 2482.57L852.226 2461.46Z"/>
	<path fill="#8D99AE" transform="scale(0.549984 0.549984)" d="M870.257 2488.34C878.185 2487.9 907.791 2483.1 913.358 2491.94C914.477 2497.29 914.168 2503.36 914.13 2509.11L894.24 2509.79L851.932 2509.31L851.927 2489.08L870.257 2488.34Z"/>
	<path fill="#8D99AE" transform="scale(0.549984 0.549984)" d="M859.851 2380.75C870.368 2380.5 905.464 2375.77 913.049 2383.62C914.728 2385.36 915.114 2386.96 915.738 2390.54C915.486 2392.21 915.266 2393.82 914.748 2395.23C912.86 2400.37 911.367 2400.87 908.513 2401.8C897 2401.87 861.387 2405.04 852.871 2400.66C852.516 2399.55 852.343 2399.18 852.178 2397.7C851.755 2393.9 851.849 2388.33 852.747 2384.92C854.882 2380.75 857.065 2381.11 859.851 2380.75Z"/>
	<path fill="#8D99AE" transform="scale(0.549984 0.549984)" d="M868.1 2407.34C883.54 2406.55 899.11 2407.64 914.563 2407.84L914.047 2428.45L899.18 2428.4C883.475 2428.22 867.769 2428.27 852.065 2428.54L851.954 2408.1L868.1 2407.34Z"/>
	<path fill="#8D99AE" transform="scale(0.549984 0.549984)" d="M871.905 2299.8C882.394 2299.58 893.468 2297.81 903.853 2300.79C907.071 2301.71 913.022 2303.48 915.08 2309.17L914.851 2312.61C910.254 2322.63 903.399 2322.31 897.292 2322.61C885.013 2322.6 871.552 2325.01 859.384 2322.13C856.033 2321.33 853.922 2318.73 851.838 2313.23C851.702 2311.08 851.351 2310.15 852.096 2308.34C855.527 2299.99 867.059 2300.26 871.905 2299.8Z"/>
	<path fill="#8D99AE" transform="scale(0.549984 0.549984)" d="M852.528 2327.56L914.205 2327.31C914.134 2334.12 914.022 2340.94 913.868 2347.75L851.981 2347.67C852.034 2340.96 852.31 2334.25 852.528 2327.56Z"/>
	<path fill="#8D99AE" transform="scale(0.549984 0.549984)" d="M853.011 2515.95C863.425 2515.43 904.797 2511.19 911.852 2517.62C913.708 2519.31 914.038 2520.66 914.714 2524.56C913.965 2528.43 913.306 2530.24 911.837 2533.02C901.931 2536.79 862.762 2538.96 854.761 2531.63C852.818 2529.85 852.309 2528.23 851.456 2524.26C851.734 2520.7 851.981 2518.84 853.011 2515.95Z"/>
	<path transform="scale(0.549984 0.549984)" d="M707.758 2321.75C708.613 2329.63 709.213 2337.33 709.693 2345.34C727.38 2345.6 745.065 2346.09 762.749 2346.79C770.855 2347.06 779.975 2349.21 787.95 2346.81C789.259 2346.42 790.379 2345.27 791.519 2343.93C791.512 2344.57 791.516 2345.2 791.498 2345.84C791.435 2348.14 791.236 2349.4 790.797 2351.45C795.437 2352.11 800.094 2350.96 804.698 2351.73C808.398 2352.35 810.539 2356.25 814.638 2356.19L814.304 2358.21C805.327 2359.12 795.747 2357.01 786.677 2356.88C756.197 2356.41 725.639 2354.54 695.166 2355.66C698.731 2349.78 703.265 2350.79 707.554 2350.57C707.402 2340.87 707.45 2331.44 707.758 2321.75Z"/>
	<path fill="#2B2D42" transform="scale(0.549984 0.549984)" d="M607.218 2376.92L609.624 2377.43C611.159 2381.02 610.95 2383.68 611.069 2388.52C611.408 2402.34 613.069 2453.3 608.869 2463.06C606.861 2464.38 606.437 2464.19 604.364 2463.22C602.676 2460.12 601.452 2457.08 600.333 2452.95C595.135 2433.74 597.931 2407.14 600.63 2387.08C602.714 2383.36 604.977 2380.19 607.218 2376.92Z"/>
	<path transform="scale(0.549984 0.549984)" d="M691.414 2485.74C712.235 2490.25 733.548 2487.67 754.448 2487.48C772.168 2487.32 789.985 2489.08 807.686 2488.14C807.165 2489.1 806.762 2490.47 806.122 2491.01C802.188 2494.33 767.87 2490.03 759.069 2492.33L759.673 2495.23C764.549 2489.43 784.482 2495.31 790.595 2497.17C778.286 2500.5 713.236 2491.94 708.581 2500.09L707.918 2502.76C707.361 2499.85 707.622 2498.61 707.792 2495.55C705.045 2486.96 695.763 2494.91 691.414 2485.74Z"/>
	<path fill="#8D99AE" transform="scale(0.549984 0.549984)" d="M855.893 2282.45C868.309 2281.9 900.385 2276.32 910.397 2286.44C912.014 2288.08 912.062 2288.55 912.572 2291.95L911.088 2295.89C898.643 2296.19 867.844 2302.29 857.529 2293.78C855.789 2292.34 855.346 2291.15 854.672 2287.58L855.893 2282.45Z"/>
	<path transform="scale(0.549984 0.549984)" d="M660.389 2340.57C662.201 2352.19 661.95 2436.57 660.924 2450.78L659.391 2452.53C657.588 2433.7 658.869 2409.82 658.91 2390.37C646.494 2390.49 634.078 2390.41 621.663 2390.15C621.394 2409.58 621.952 2431.6 620.167 2450.58C620.054 2449.75 619.842 2448.32 619.765 2447.39C618.563 2432.85 618.855 2389.29 619.784 2373.69C619.979 2370.41 620.716 2368.22 621.594 2365.58C621.504 2370.53 621.02 2375.76 622.449 2379.98C627.482 2383.8 652.868 2381.04 660.149 2381C660.14 2367.52 660.22 2354.04 660.389 2340.57Z"/>
	<path fill="#8D99AE" transform="scale(0.549984 0.549984)" d="M887.947 2539.58C896.286 2538.6 904.949 2541.52 913.104 2544.8C901.37 2553.32 889.657 2552.59 877.416 2552.71C868.587 2551.8 860.361 2549.08 851.77 2544.63C863.871 2541.31 875.757 2540.36 887.947 2539.58Z"/>
	<path fill="#2B2D42" transform="scale(0.549984 0.549984)" d="M670.482 2388.97L674.175 2390.62C675.062 2391.92 675.81 2393.08 676.309 2395.19C679.932 2410.5 678.04 2442.33 676.062 2458.24C673.589 2456.73 672.284 2455.06 670.97 2450.2C666.69 2434.38 668.616 2406.02 670.482 2388.97Z"/>
	<path transform="scale(0.549984 0.549984)" d="M807.686 2488.14L808.415 2488.08C807.306 2491.6 807.302 2492.14 805.224 2492.81C801.586 2493.97 797.44 2492.93 793.744 2492.93C793.73 2503.66 794.634 2527.17 791.227 2535.19C791.139 2523.52 792.306 2507.99 790.595 2497.17C784.482 2495.31 764.549 2489.43 759.673 2495.23L759.069 2492.33C767.87 2490.03 802.188 2494.33 806.122 2491.01C806.762 2490.47 807.165 2489.1 807.686 2488.14Z"/>
	<path transform="scale(0.549984 0.549984)" d="M663.861 259.277C679.896 255.231 702.176 258.564 718.917 258.721C759.416 259.101 800.071 260.42 840.555 258.298C836.164 267.178 828.755 263.988 823.052 263.835L823.076 398.23C823.077 421.289 823.863 445.554 822.752 468.382L822.375 467.888L821.999 469.558C820.943 449.038 821.772 426.547 821.787 405.804C821.959 360.217 821.903 314.626 821.619 269.042C792.886 267.049 763.879 269.002 735.114 268.87C717.561 268.79 698.807 264.96 681.449 269.469C681.585 267.016 681.725 266.248 682.249 264.151L684.296 263.969L683.386 262.962L683.875 263.928C678.335 263.855 671.678 261.481 666.353 264.193L667.503 267.975C661.801 268.156 656.529 266.406 651.075 262.988C655.102 261.959 659.261 262.73 663.334 261.979L663.861 259.277Z"/>
	<path fill="white" fill-opacity="0.023529412" transform="scale(0.549984 0.549984)" d="M688.38 67.8423C716.877 67.6021 745.369 65.2204 773.865 65.2165C783.621 65.2152 800.741 69.4266 809.005 67.7197C810.271 69.7858 810.458 69.982 810.967 73.1564L809.695 75.4615C805.023 77.9054 800.469 79.1173 795.664 79.636C778.92 81.4437 761.973 79.0877 745.204 78.9806C730.591 78.8873 705.356 83.0082 691.836 76.8384C689.778 75.8994 688.844 75.3155 687.658 71.6013L688.38 67.8423Z"/>
	<path transform="scale(0.549984 0.549984)" d="M704.493 196.889C704.447 183.073 703.568 122.764 706.75 114.733C706.836 140.587 706.84 166.442 706.764 192.296L763.385 192.801C772.915 192.774 783.411 190.799 792.836 193.323L791.141 196.038L789.856 195.586L788.734 197.328C799.526 202.589 826.331 192.214 834.162 200.941L835.298 202.189C778.148 202.417 720.867 204.706 663.744 200.478C663.914 199.967 664.057 199.41 664.254 198.944C665.921 194.987 698.922 197.113 704.493 196.889Z"/>
	<path transform="scale(0.549984 0.549984)" d="M679.824 62.1779C679.999 61.9453 680.165 61.6817 680.348 61.4799C683.69 57.7961 688.627 57.6436 692.354 57.1597C711.411 54.6853 730.879 56.3742 749.993 56.2063C766.439 56.0618 783.008 54.0495 799.435 55.5352C805.942 56.1237 812.077 57.3301 818.372 60.9439C813.72 61.426 809.296 61.5886 804.654 60.6667L804.318 61.4206C805.479 63.5267 806.307 63.7389 807.793 64.2105L809.005 67.7197C800.741 69.4266 783.621 65.2152 773.865 65.2165C745.369 65.2204 716.877 67.6021 688.38 67.8423L690.078 63.2611C688.709 62.1981 689.184 62.1931 687.915 62.3973C685.379 62.8055 683.203 62.9508 680.659 62.3788L679.824 62.1779Z"/>
	<path transform="scale(0.549984 0.549984)" d="M677.822 2034.42C690.876 2031.56 767.329 2026.83 775.266 2038.46C773.738 2042.19 770.193 2042.18 767.914 2042.48C747.276 2045.28 726.301 2043.19 705.634 2042.78C696.814 2042.61 686.726 2040.69 678.104 2043.8C676.863 2048.79 677.06 2055.56 676.914 2061.12C673.054 2038.27 676.757 2046.68 677.822 2034.42Z"/>
	<path transform="scale(0.549984 0.549984)" d="M677.2 1333.63C676.526 1329.04 676.328 1324.42 677.318 1319.97C677.519 1320.08 677.72 1320.19 677.923 1320.29C685.085 1323.67 694.78 1320.58 702.215 1320.12C714.001 1319.4 765.968 1317.29 774.416 1325.19L774.47 1327.35C760.445 1342.95 692.724 1318.7 677.2 1333.63Z"/>
	<path transform="scale(0.549984 0.549984)" d="M679.026 719.567C693.861 720.74 708.836 720.149 723.68 719.719C736.879 719.336 764.246 713.502 775.872 723.41L776.128 724.857C773.751 727.949 770.964 728.838 768.221 729.35C757.445 731.359 746.083 729.121 735.227 729.16C716.951 729.225 698.47 731.09 680.224 729.559L688.712 724.904C687.436 724.934 686.159 724.931 684.882 724.895C681.907 724.753 681.074 724.248 679.026 719.567Z"/>
	<path transform="scale(0.549984 0.549984)" d="M679.115 1675.46C701.146 1677.07 723.606 1674.78 745.683 1674.47C753.882 1674.35 763.331 1672.46 771.421 1675.27C773.103 1675.85 774.258 1677.23 775.585 1679.41L775.256 1681.11C762.491 1690.93 714.715 1682.52 698.661 1681.91C692.104 1681.66 684.376 1680.27 678.034 1683.9C679.129 1680.03 679.498 1679.83 679.115 1675.46Z"/>
	<path transform="scale(0.549984 0.549984)" d="M675.569 2127.24C677.636 2116.77 672.898 2106.98 676.833 2095.03C676.955 2102.6 677.044 2110.18 677.101 2117.75C694.246 2118.06 731.772 2112.2 746.678 2126.81C724.356 2135.62 699.972 2129.07 677.328 2129.24L675.569 2127.24Z"/>
	<path transform="scale(0.549984 0.549984)" d="M678.382 841.672L676.728 842.638L675.759 840.406C674.691 826.986 674.778 806.971 675.57 793.355L676.814 791.412C677.272 795.978 677.548 800.365 677.85 804.974C678.012 807.439 677.963 806.623 678.617 809.271C701.064 814.311 724.468 803.551 746.779 813.747C731.432 819.772 715.605 820.786 700.035 821.237C692.942 821.443 685.084 819.847 678.105 822.129C677.198 827.445 677.544 836.342 678.382 841.672Z"/>
	<path transform="scale(0.549984 0.549984)" d="M678.896 551.061C691.38 548.425 704.31 549.6 716.866 549.315C730.833 548.999 744.814 547.505 758.78 547.943C757.23 548.834 755.002 549.426 753.75 551.509L752.621 551.648L752.771 550.358L753.84 552.82L755.111 552.477C762.21 550.706 770.83 551.003 777.954 552.417C766.684 558.543 754.446 557.555 742.883 557.692C721.297 557.949 699.437 555.292 677.912 557.359L678.896 551.061Z"/>
	<path transform="scale(0.549984 0.549984)" d="M676.837 1529.6C674.796 1522.13 676.12 1508.33 676.592 1500.16C676.749 1497.43 676.789 1495.49 677.247 1492.89C684.187 1497 693.617 1494.35 700.885 1493.92C718.274 1492.9 752.492 1489.21 768.138 1497.41C754.543 1500.21 710.598 1493.82 702.021 1499.16C710.205 1501.5 719.704 1499.04 727.33 1505.54C710.764 1505.95 694.186 1502.67 677.633 1503.71C677.625 1512.27 677.968 1521.33 676.837 1529.6Z"/>
	<path transform="scale(0.549984 0.549984)" d="M677.805 1160.71C693.849 1157.8 732.084 1150.71 745.966 1164.14L746.258 1166.02C742.268 1169.12 684.314 1169.58 678.685 1168.1C678.902 1164.94 678.372 1163.6 677.805 1160.71Z"/>
	<path transform="scale(0.549984 0.549984)" d="M677.382 1862.93C676.938 1861.69 677.202 1862.59 676.917 1859.9L678.343 1858C677.087 1856.1 677.668 1857.32 676.701 1854.13L677.318 1851.27C685.009 1856.34 698.698 1852.68 707.107 1852.3C723.649 1851.55 746.548 1849.02 762.288 1853.83C762 1853.9 761.713 1853.97 761.425 1854.03C748.902 1856.68 736.154 1852.09 723.682 1855.49C722.275 1855.88 720.847 1856.36 719.431 1856.4C727.432 1859.02 735.571 1857.14 743.613 1859.73C743.851 1860.65 744.182 1861.52 744.266 1862.55L701.671 1862.06C693.671 1862.03 685.346 1861.18 677.382 1862.93Z"/>
	<path transform="scale(0.549984 0.549984)" d="M677.657 1075.77C685.187 1080.61 698.759 1076.57 707.013 1075.96C721.636 1074.87 755.348 1072.84 768.746 1078.66C755.601 1081.65 742.007 1078.58 728.8 1079C723.869 1079.16 719.452 1081.62 714.454 1080.96C717.254 1080.95 721.98 1079.7 724.099 1084.23C724.405 1084.89 724.619 1085.71 724.879 1086.44C709.477 1086.36 693.341 1084.15 678.021 1087.07C678.949 1081.8 677.556 1081.47 677.657 1075.77Z"/>
	<path transform="scale(0.549984 0.549984)" d="M685.068 637.497C694.791 637.666 731.814 628.839 738.521 639.808L738.315 641.871C729.656 650.815 688.097 647.493 677.481 645.588L677.593 642.11L678.815 640.486C680.804 640.749 682.578 640.738 684.561 640.327L685.068 637.497Z"/>
	<path transform="scale(0.549984 0.549984)" d="M678.178 1944.85C678.569 1945.41 678.952 1945.99 679.351 1946.51C689.782 1960.29 734.081 1936.61 738.778 1953.36C729.976 1967.4 686.182 1951.97 677.352 1959.67L676.748 1955.97C677.78 1951.82 678.147 1949.71 678.178 1944.85Z"/>
	<path transform="scale(0.549984 0.549984)" d="M678.705 991.121C700.057 986.748 725.012 985.911 746.048 995.223C726.666 999.486 697.322 1002.89 678.427 997.702C678.61 995.586 678.626 993.271 678.705 991.121Z"/>
	<path transform="scale(0.549984 0.549984)" d="M679.109 1767.25C699.784 1771.79 720.289 1762.66 740.772 1773.25C722.706 1779.39 695.988 1781.06 677.875 1775.14C678.463 1772.53 678.745 1770.04 679.109 1767.25Z"/>
	<path fill="white" fill-opacity="0.023529412" transform="scale(0.549984 0.549984)" d="M710.678 1548.13C711.357 1550.76 711.579 1550.82 711.468 1553.97C712.159 1555.49 712.87 1556.93 713.578 1558.41C714.455 1560.25 714.145 1559.64 714.636 1562.73C704.462 1560.92 689.766 1567.01 680.401 1562.13C678.781 1561.28 677.517 1560.49 676.687 1557.3C681.848 1545.54 702.256 1550.08 709.728 1548.37C710.045 1548.3 710.362 1548.21 710.678 1548.13Z"/>
	<path transform="scale(0.549984 0.549984)" d="M675.569 2127.24L677.328 2129.24C677.236 2134.45 676.881 2139.3 678.121 2144.02C687.381 2148.15 705.102 2138.15 712.753 2149.31L712.513 2151.62C704.483 2159.63 685.63 2146.35 679.926 2158.52C679.864 2161.93 679.872 2162.64 681.095 2165.05C681.947 2166.72 683.342 2168.04 684.365 2169.25C683.444 2169.33 682.514 2169.41 681.593 2169.35C680.107 2169.25 678.748 2168.33 677.808 2165.78C674.466 2156.72 675.361 2138.3 675.569 2127.24Z"/>
	<path transform="scale(0.549984 0.549984)" d="M768.138 1497.41C770.343 1497.48 772.207 1497.34 774.256 1499.37L774.131 1500.31C765.855 1506.96 736.803 1508.63 727.33 1505.54C719.704 1499.04 710.205 1501.5 702.021 1499.16C710.598 1493.82 754.543 1500.21 768.138 1497.41Z"/>
	<path transform="scale(0.549984 0.549984)" d="M678.287 687.077C678.732 687.434 679.174 687.812 679.623 688.148C687.098 693.739 711.768 681.104 715.393 692.547C712.917 698.765 706.291 699.082 702.669 699.659C694.589 700.947 685.463 699.888 677.421 697.556C677.42 697.167 677.387 696.774 677.416 696.39C677.648 693.279 678.08 690.256 678.287 687.077Z"/>
	<path transform="scale(0.549984 0.549984)" d="M768.746 1078.66C771.236 1079.47 773.623 1080.29 776.041 1081.82C759.637 1090.69 741.719 1087.05 724.879 1086.44C724.619 1085.71 724.405 1084.89 724.099 1084.23C721.98 1079.7 717.254 1080.95 714.454 1080.96C719.452 1081.62 723.869 1079.16 728.8 1079C742.007 1078.58 755.601 1081.65 768.746 1078.66Z"/>
	<path transform="scale(0.549984 0.549984)" d="M762.288 1853.83C765.579 1854.31 771.575 1854.2 774.313 1858.19L774.122 1860.56C765.993 1867.16 752.945 1863.03 744.266 1862.55C744.182 1861.52 743.851 1860.65 743.613 1859.73C735.571 1857.14 727.432 1859.02 719.431 1856.4C720.847 1856.36 722.275 1855.88 723.682 1855.49C736.154 1852.09 748.902 1856.68 761.425 1854.03C761.713 1853.97 762 1853.9 762.288 1853.83Z"/>
	<path fill="white" fill-opacity="0.023529412" transform="scale(0.549984 0.549984)" d="M713.938 1923.67C704.287 1923.87 687.414 1930.31 678.757 1920L679.31 1918.3C689.529 1912.5 701.027 1915.2 711.528 1914.67L711.295 1918.43C712.195 1920.11 713.169 1921.71 713.938 1923.67Z"/>
	<path transform="scale(0.549984 0.549984)" d="M683.493 1134.54L684.906 1134.67C696.087 1135.52 708.099 1129.45 718.789 1138.44C708.729 1141.84 686.71 1146.47 677.56 1138.92C679.747 1136.02 681.375 1138.4 683.493 1134.54Z"/>
	<path fill="white" fill-opacity="0.023529412" transform="scale(0.549984 0.549984)" d="M683.153 445.656C691.986 445.297 700.762 448.007 709.545 444.992C709.433 445.806 709.354 446.644 709.209 447.434C708.575 450.877 707.582 452.707 705.972 454.014C701.499 457.645 694.711 454.606 690.607 450.026C689.576 448.876 688.985 448.105 687.804 447.61C686.251 446.96 684.704 446.376 683.153 445.656Z"/>
	<path transform="scale(0.549984 0.549984)" d="M758.78 547.943C765.305 547.616 771.721 547.665 777.954 552.417C770.83 551.003 762.21 550.706 755.111 552.477L753.84 552.82L752.771 550.358L752.621 551.648L753.75 551.509C755.002 549.426 757.23 548.834 758.78 547.943Z"/>
</svg>
