<?xml version="1.0" encoding="utf-8" ?>
<svg xmlns="http://www.w3.org/2000/svg" xmlns:xlink="http://www.w3.org/1999/xlink" width="416" height="554">
	<path fill="#292829" transform="scale(1.13847 1.13847)" d="M220.448 18.5885C223.942 18.2155 227.473 18.417 230.902 19.1852C238.042 20.8404 245.15 24.9516 249.022 31.3079C259.867 49.1086 242.934 78.5849 241.808 98.1273C241.587 101.974 241.882 105.812 242.477 109.615C243.525 116.305 245.51 122.697 243.86 129.488C249.117 130.729 256.133 135.177 259.149 139.686C260.058 141.044 260.496 142.346 260.626 143.974C261.094 149.821 259.371 155.877 258.264 161.575L255.127 177.811C254.246 182.305 253.56 189.031 249.384 191.748C242.828 196.014 219.501 195.823 211.885 194.099C211.728 196.989 210.984 199.926 210.434 202.769L207.522 217.508L197.607 266.988L184.164 333.749L180.413 352.449C179.622 356.436 178.962 360.537 177.791 364.432C176.025 370.307 172.229 374.71 169.183 379.89C166.832 383.886 165.219 388.351 163.955 392.797C162.85 396.684 162.018 400.703 161.296 404.678C160.238 410.504 159.38 423.464 155.009 427.369C154.272 428.027 153.53 428.362 152.556 428.288C152.375 428.478 152.209 428.655 151.989 428.801C150.467 429.812 148.123 429.665 146.418 429.305C143.719 428.735 141.547 427.455 140.049 425.102C135.832 418.474 140.624 406.894 142.19 399.791C143.064 395.824 143.584 391.859 144.021 387.824C144.486 383.75 144.423 379.634 143.833 375.576C142.824 368.569 140.844 362.082 141.677 354.924C142.66 346.47 144.866 337.953 146.616 329.632L154.751 290.494C161.958 255.992 168.469 221.292 176.201 186.905C166.112 183.84 155.168 180.498 146.652 174.089C144.282 172.305 141.317 169.571 141.006 166.414C140.359 159.862 143.815 148.998 145.27 142.312C146.539 136.476 147.471 130.51 149.282 124.807C149.865 122.971 150.66 120.783 151.933 119.3C155.783 114.816 165.695 114.406 171.205 113.942C171.153 112.393 171.106 110.948 171.557 109.45C172.944 104.844 177.03 100.925 179.904 97.1833C181.901 94.5846 183.709 91.7435 185.079 88.7626C187.43 83.6459 188.279 77.6202 189.089 72.0933C191.16 57.9553 192.26 41.4585 200.866 29.5093C205.849 22.5909 212.306 19.8893 220.448 18.5885ZM212.05 173.26C205.051 171.812 198.169 169.739 191.159 168.257C190.35 170.921 189.613 173.536 189.077 176.268C188.033 180.27 187.335 184.441 186.489 188.494L181.621 211.784L163.517 298.919C161.351 309.231 159.688 319.642 157.248 329.899C156.786 331.839 155.836 337.66 154.347 338.757L153.906 338.637C153.525 337.957 153.556 337.371 153.676 336.616C154.418 331.952 155.631 327.266 156.608 322.642L162.68 293.594L187.367 174.886C187.801 172.598 188.281 170.319 188.806 168.05C186.997 168.109 185.201 168.041 183.394 167.971C182.787 174.853 181.096 181.893 179.708 188.657L173.187 219.87L153.928 312.989C152.401 320.554 150.954 328.142 149.349 335.691C148.093 341.604 146.586 347.51 145.693 353.492C144.537 361.238 146.681 367.82 147.543 375.393C148.218 381.323 147.948 387.242 147.333 393.168C146.977 396.599 146.264 400.059 145.468 403.411C144.358 408.088 140.254 419.348 143.385 423.192C144.504 424.566 146.229 425.184 147.947 425.313C149.645 425.441 150.942 425.156 152.248 423.984C156.25 420.391 157.228 406.204 158.195 401.037C158.928 397.297 159.804 393.587 160.82 389.914C162.051 385.522 163.759 381.5 166.051 377.557C169.436 371.734 173.186 367.027 174.89 360.322C176.501 353.98 177.444 347.514 178.731 341.107C181.195 329.309 183.562 317.492 185.832 305.656L204.054 215.145L209.46 187.535C210.332 182.87 210.848 177.834 212.05 173.26ZM230.832 176.872C233.6 178.6 237.963 180.447 238.824 183.958C238.992 184.64 238.889 185.304 238.479 185.88C237.255 187.594 234.152 188.421 232.171 188.659C227.855 189.178 216.845 187.986 213.651 189.278L213.575 189.658C214.204 190.552 215.201 190.777 216.228 190.958C218.887 191.428 221.697 191.308 224.392 191.313C232.033 191.326 239.855 191.299 246.935 188.028C247.194 186.054 247.41 184.499 246.121 182.788C244.418 180.526 240.827 179.195 238.386 177.843C220.13 167.724 200.568 162.827 179.924 160.601C173.876 159.949 167.46 159.388 161.385 159.86C157.004 160.143 149.697 160.452 146.613 163.927C146.079 164.528 145.734 165.273 145.824 166.091C146.048 168.12 148.559 169.995 150.084 171.097C152.506 172.846 156.379 174.977 159.093 176.255C162.481 177.851 173.17 182.306 176.478 182.051L176.735 181.762C174.929 179.217 167.615 177.459 164.57 176.083C161.6 174.742 154.063 170.579 154.778 166.595C154.944 165.672 155.642 164.749 156.407 164.227C160.788 161.242 185.904 163.709 192.572 164.638C195.997 165.115 199.431 165.839 202.797 166.624C212.322 168.846 222.265 172.081 230.832 176.872ZM175.056 110.661C181.436 110.33 187.902 109.846 194.289 110.063C205.806 110.454 223.746 113.565 233.393 120.25C234.897 121.241 237.993 123.706 239.857 123.361C240.03 123.329 240.082 123.295 240.258 123.224C240.518 122.629 240.471 122.374 240.203 121.76C238.063 116.864 226.058 113.285 221.086 111.65C209.341 107.787 197.815 105.641 185.424 106.112C181.083 106.411 178.317 106.893 175.337 110.332C175.242 110.441 175.149 110.551 175.056 110.661ZM187.267 101.245C192.85 97.9844 194.278 90.8825 195.801 85.082C197.415 78.9313 198.318 72.5761 199.619 66.3507C200.655 61.3894 206.77 35.5827 206.441 32.6715L206.214 32.4367C203.821 35.7126 202.009 39.3761 200.858 43.2667C197.225 55.2889 197.201 68.2462 193.614 80.3461C192.76 83.2259 186.709 99.2218 186.973 100.733C187.012 100.96 187.103 101.092 187.267 101.245ZM198.279 100.881C200.08 98.4607 200.957 94.8549 201.924 92.0088C206.776 78.1179 210.267 63.7884 212.348 49.2224C212.683 46.9443 213.489 43.422 213.042 41.1628C212.989 40.8952 212.947 40.845 212.834 40.6341C210.191 44.6278 208.819 49.6404 207.448 54.182C205.545 60.4839 197.027 95.5609 198.002 100.123C198.061 100.398 198.162 100.626 198.279 100.881ZM178.441 155.963C179.375 156.176 180.763 156.689 181.661 156.345L181.8 156.128C185.593 144.659 187.361 132.562 190.237 120.842C188.866 120.695 187.466 120.475 186.091 120.419C184.209 128.467 182.455 136.544 180.828 144.647C180.054 148.339 179.566 152.378 178.441 155.963ZM228.605 128.389C227.706 129.67 227.27 131.037 226.872 132.542C225.099 139.236 224.195 146.261 222.803 153.049C222.125 156.355 220.399 161.651 220.295 164.818C220.826 165.335 221.397 165.529 222.079 165.792C222.518 165.663 222.835 165.665 223.083 165.235C223.794 164.002 229.24 136.091 229.557 133.476C229.712 132.195 229.885 130.758 229.459 129.511C229.289 129.014 229.044 128.682 228.605 128.389ZM157.205 121.618C155.98 122.83 155.417 123.975 154.86 125.6C152.939 131.206 152.277 137.486 151.097 143.291C150.136 148.018 148.68 152.719 148.189 157.524L148.403 157.919L148.883 157.974C149.962 157.244 150.61 156.569 151.144 155.359C152.874 151.446 153.263 146.652 154.156 142.476C155.102 138.052 156.295 133.682 157.142 129.236C157.557 127.06 158.292 124.033 157.644 121.887L157.385 121.609L157.383 121.916L157.205 121.618ZM171.012 156.049L174.442 155.944C175.608 149.891 177.366 143.944 178.69 137.922C180.01 131.917 180.895 125.818 182.208 119.812C181.028 119.861 179.842 119.954 178.664 119.838C175.969 131.454 172.568 144.336 171.012 156.049ZM216.601 163.899C217.628 161.344 218.001 158.219 218.623 155.524C219.971 149.683 224.551 132.78 224.01 127.678C223.526 126.965 223.225 126.9 222.46 126.541C221.171 130.504 213.924 160.416 215.191 162.791C215.432 163.243 216.132 163.696 216.601 163.899ZM238.75 172.702C240.498 167.369 247.285 140.631 245.408 136.722C245.115 136.112 244.929 136.068 244.347 135.791C242.862 141.586 236.222 168.295 237.661 172.316C238.152 172.748 238.1 172.742 238.75 172.702ZM155.245 156.339C156.091 155.972 156.459 155.849 156.832 154.94C157.99 152.123 158.186 148.985 158.856 146.037C159.75 142.107 160.481 138.172 161.302 134.224C162.207 129.874 163.216 125.574 163.617 121.14L163.292 120.847C162.518 120.941 161.922 120.892 161.304 121.402C159.786 126.491 159.142 131.977 158.117 137.19C157.336 141.165 154.274 152.18 154.766 155.735L155.245 156.339ZM163.298 156.011C164.615 152.848 171.377 122.631 170.676 120.088L169.761 119.654C167.637 121.456 162.649 148.851 162.341 152.712C162.261 153.711 162.097 154.838 162.685 155.709L163.298 156.011ZM247.343 178.901C249.432 176.735 254.125 148.862 254.064 144.518C254.058 144.085 254.075 143.668 253.773 143.314C253.723 143.255 253.66 143.21 253.603 143.158C252.323 145.55 246.15 176.136 246.841 178.088C246.956 178.413 247.126 178.64 247.343 178.901ZM197.168 121.555C196.371 127.389 188.855 154.248 190.493 157.874C190.822 158.041 190.799 158.125 191.175 157.989C191.662 157.814 191.974 157.367 192.295 156.984C194.235 149.818 195.812 142.608 197.435 135.368C198.429 130.94 199.637 126.465 200.258 121.967C199.194 121.905 198.202 121.837 197.168 121.555ZM206.158 122.742C205.452 124.948 205.188 127.354 204.681 129.622C203.353 135.564 198.759 154.068 199.204 159.217C199.522 159.726 199.769 159.895 200.372 160.047C200.8 160.154 201.319 160.189 201.759 160.165C203.298 154.331 204.405 148.32 205.676 142.418C206.996 136.284 208.707 129.767 209.153 123.504C208.83 123.306 208.669 123.125 208.285 123.123C207.489 123.118 206.901 123.02 206.158 122.742ZM216.664 124.804C215.535 129.824 208.039 159.029 209.42 161.836C209.958 162.006 210.278 162.045 210.84 162.002C212.647 157.4 219.861 129.576 218.521 126.017C218.338 125.529 217.706 125.161 217.239 124.984C217.052 124.913 216.857 124.858 216.664 124.804ZM238.34 133.215C237.468 132.826 236.581 132.372 235.687 132.042C232.538 143.774 229.486 155.699 227.953 167.764C229.007 168.22 229.848 168.694 230.751 169.406C233.023 161.542 234.581 153.758 236.035 145.718C236.782 141.582 237.34 137.292 238.34 133.215Z"/>
	<path transform="scale(1.13847 1.13847)" d="M187.367 174.886C187.879 174.595 188.086 174.333 188.674 174.465C188.941 175.067 189.004 175.618 189.077 176.268C188.033 180.27 187.335 184.441 186.489 188.494L181.621 211.784L163.517 298.919C161.351 309.231 159.688 319.642 157.248 329.899C156.786 331.839 155.836 337.66 154.347 338.757L153.906 338.637C153.525 337.957 153.556 337.371 153.676 336.616C154.418 331.952 155.631 327.266 156.608 322.642L162.68 293.594L187.367 174.886Z"/>
</svg>
