<?xml version="1.0" encoding="utf-8" ?>
<svg xmlns="http://www.w3.org/2000/svg" xmlns:xlink="http://www.w3.org/1999/xlink" width="743" height="743">
	<path transform="scale(0.725322 0.725322)" d="M495.341 31.2209C523.347 28.8901 556.008 32.4959 582.964 40.4443C596.819 44.5294 617.041 50.8233 624.101 64.4652C626.323 68.7596 627.038 73.7454 625.485 78.3786C621.91 89.0468 609.447 95.6994 600.07 100.489C599.747 130.974 599.998 161.487 600.029 191.974C600.054 216.758 598.224 243.4 603.322 267.742C607.049 285.542 615.228 302.853 621.586 319.867L658.506 417.728C696.513 519.798 735.108 621.647 774.29 723.272L796.965 783.357C801.983 796.65 807.691 810.048 811.268 823.802C812.762 829.68 813.597 835.706 813.757 841.769C814.264 866.346 801.809 889.898 785.117 907.267C728.492 966.191 612.847 988.384 534.625 990.131C525.978 989.908 517.309 990.423 508.66 990.517C496.362 990.548 484.065 990.247 471.783 989.617C400.32 985.506 305.205 965.863 249.683 917.417C226.699 897.362 209.181 870.039 210.955 838.549C212.066 818.822 223.862 792.028 230.777 773.083L254.602 708.039L352.247 438.017C365.767 401.147 379.024 364.182 392.016 327.124C398.848 307.442 407.22 287.446 410.951 266.894C414.001 250.09 413.954 232.99 413.948 215.978L413.951 175.798L413.942 128.925C413.931 118.563 414.203 108.114 413.486 97.7746C408.66 95.8185 404.033 93.4321 399.991 90.1136C395.291 86.2544 391.437 81.3279 390.965 75.0468C390.516 69.0804 392.91 63.6944 396.885 59.3433C415.844 38.5912 468.162 32.6338 495.341 31.2209ZM604.618 974.451C622.324 971.3 639.862 968.215 657.264 963.609C702.288 951.692 761.012 928.007 788.556 888.335C800.101 871.707 806.828 851.63 803.122 831.351C800.38 816.345 792.96 800.179 787.546 785.874L762.159 718.635L643.538 405.816L610.869 319.359C604.561 302.376 596.849 285.156 593.607 267.267C589.455 244.357 591.12 220.149 591.302 196.961C591.523 168.307 591.38 139.651 590.873 111.001C580.861 114.585 570.922 117.577 560.4 119.344C524.949 125.298 456.275 124.131 423.06 110.258C422.789 138.453 422.759 166.649 422.972 194.845C423.008 223.312 424.352 253.101 417.487 280.925C413.384 297.552 406.574 313.426 400.897 329.555C389.77 361.362 378.448 393.099 366.932 424.767L261.426 716.172L236.285 784.672C230.16 801.641 221.164 821.272 219.924 839.284C218.299 862.889 229.682 885.064 245.882 901.603C258.068 914.043 272.558 923.923 287.62 932.535C355.742 971.491 438.684 981.482 515.971 981.886C544.337 982.034 576.648 978.741 604.618 974.451ZM517.625 106.01C544.373 104.879 594.567 101.693 613.397 80.9698C615.611 78.5333 616.712 76.5072 617.66 73.3235C615.976 66.4875 611.739 62.4659 605.858 58.929C579.488 43.0697 531.71 38.9011 501.2 39.7189C476.406 40.9432 420.692 46.4048 403.585 65.4064C401.32 67.9218 399.635 71.1495 399.981 74.62C400.425 79.0686 403.985 82.5432 407.374 85.0852C431.569 103.233 488.195 107.11 517.625 106.01ZM589.879 105.853L590.923 104.608L590.775 103.546C587.112 102.55 570.984 107.549 565.688 108.417C554.369 110.261 542.967 111.566 531.523 112.326C494.328 114.451 458.21 111.508 422.201 101.64C422.5 103.428 422.415 104.487 423.988 105.643C429.248 109.506 438.999 110.425 445.379 111.651C485.087 119.282 527.089 121.505 566.863 112.921C574.605 111.25 582.737 109.328 589.879 105.853Z"/>
	<path transform="scale(0.725322 0.725322)" d="M583.409 283.598C584.284 283.901 585.467 284.315 586.1 285.04C588.097 287.331 628.478 402.645 632.572 414.008L705.783 616.248C723.616 665.241 741.938 714.18 758.627 763.575C762.378 774.677 765.676 785.953 769.173 797.138C772.911 809.092 777.795 821.144 778.481 833.769C779.403 850.72 772.324 865.448 761.156 877.832C719.616 923.892 628.272 943.859 569.301 950.476C555.899 951.98 542.478 952.538 529.022 953.22C452.915 957.076 324.817 939.4 266.638 886.338C252.875 873.785 240.967 856.462 240.189 837.253C239.837 828.579 242.093 820.388 244.64 812.182C251.757 789.253 260.414 766.626 268.397 743.97L306.015 635.664L409.754 334.043C411.237 329.856 413.068 322.669 416.026 319.474C417.242 319.092 417.205 319.058 418.365 319.569C418.965 320.769 418.876 321.757 418.594 323.027C415.904 335.17 410.809 347.414 406.769 359.23L381.851 430.852L301.561 662.857C287.93 702.537 273.293 741.986 260.556 781.952L260.711 782.684C262.854 781.981 264.836 779.882 266.536 778.429C275.895 770.433 285.318 763.743 296.249 758.047C317.665 746.886 340 739.112 363.128 732.389C367.456 731.131 375.249 727.859 379.601 729.223L379.827 729.851C379.551 730.445 379.553 730.521 379.068 731.103C377.897 732.506 375.526 733.67 373.847 734.291C369.449 735.919 364.519 736.841 359.983 738.068C351.462 740.361 343.033 742.983 334.714 745.928C308.819 755.371 277.979 769.692 260.384 791.611C255.289 797.958 248.039 811.829 249.342 820.179C249.68 822.341 250.436 824.453 250.918 826.588C252.04 831.56 253.075 836.421 254.932 841.193C261.176 857.237 274.344 871.696 289.452 879.896C294.946 882.878 306.282 887.029 310.441 890.438C311.445 891.261 311.907 891.629 311.993 892.979C311.5 893.316 311.452 893.392 310.806 893.601C305.125 895.43 288.634 885.077 283.347 881.909C264.15 870.408 250.877 849.755 245.548 828.419C245.33 832.447 245.033 836.486 245.484 840.507C247.744 860.633 261.85 876.69 277.143 888.762C332.853 932.737 438.271 948.347 507.265 948.998C528.994 949.204 551.28 947.703 572.84 945.17C630.283 938.421 724.259 917.254 761.616 869.581C773.112 854.909 774.572 841.447 772.432 823.434C771.554 831.393 769.634 839.202 766.722 846.661C759.917 863.634 747.259 876.069 732.084 885.818C728.271 888.267 724.23 890.931 720.009 892.622C718.544 893.209 717.143 893.697 715.618 893.074L715.273 892.147C716.958 887.193 726.571 883.595 730.932 880.743C734.374 878.46 737.691 875.997 740.872 873.364C747.228 868.094 752.938 862.206 757.315 855.172C768.61 837.022 769.543 817.046 764.371 796.717C761.132 783.988 736.873 770.369 725.802 763.868C708.588 776.525 689.017 783.575 668.526 788.859C655.213 792.291 627.004 800.234 614.933 792.653C613.229 791.583 611.557 790.145 611.26 788.055C611.121 787.078 611.613 785.902 612.285 785.186C616.583 780.612 635.09 778.718 641.663 777.467C658.296 774.304 674.389 769.875 690.11 763.567C698.008 760.398 717.143 749.362 724.262 749.83C725.974 749.942 728.199 750.537 729.232 752.033C730.746 754.226 730.09 757.977 729.937 760.494C734.544 763.809 739.504 766.623 744.091 769.975C749.588 773.993 754.689 778.53 760.014 782.77C755.301 765.378 748.282 748.414 742.147 731.479L712.469 648.975L625.407 407.296C614.704 378.736 604.305 350.064 594.21 321.285C590.703 311.275 586.056 301.105 583.237 290.924C582.492 288.233 582.418 286.224 583.409 283.598ZM621.429 790.741C646.352 793.179 704.721 776.001 723.747 759.828C725.01 758.755 725.822 758.006 726.09 756.346C724.969 755.087 724.103 754.701 722.42 754.546C722.218 754.527 722.014 754.526 721.811 754.516C697.325 765.597 680.028 773.878 653.519 779.91C646.477 781.512 622.003 784.453 617.566 787.883L617.381 788.75C618.404 790.025 619.93 790.278 621.429 790.741Z"/>
	<path transform="scale(0.725322 0.725322)" d="M625.808 444.111C626.789 444.321 627.716 444.597 628.47 445.307C629.83 446.588 630.747 448.973 631.431 450.709C634.314 458.038 636.639 465.656 639.306 473.072L660.416 532.134L691.221 618.15C695.536 630.069 711.929 669.764 712.063 678.765C712.082 680.025 711.921 680.532 711.05 681.411L710.181 681.109C705.81 676.235 697.284 648.919 694.615 641.465C683.629 648.645 671.059 653.735 658.428 657.207C645.805 660.677 593.473 671.706 583.405 664.312C582.015 663.291 580.736 660.778 580.564 659.072C580.418 657.63 580.722 656.618 581.616 655.48C585.006 651.166 596.431 651.774 601.377 651.548C631.471 649.617 662.928 641.948 689.385 627.445C680.726 600.679 670.72 574.44 661.165 547.99C657.613 538.158 653.659 528.391 650.529 518.419C634.996 529.3 596.012 540.241 576.953 536.973C573.741 536.422 567.449 534.787 565.895 531.641C565.523 530.888 565.307 530.323 565.596 529.524C566.675 526.552 571.905 525.035 574.68 524.335C580.493 522.869 586.812 522.809 592.753 521.901C611.182 519.085 629.405 514.82 646.157 506.417C642.531 497.227 639.388 487.728 635.922 478.461C632.405 469.057 627.3 457.908 625.573 448.126C625.329 446.743 625.514 445.468 625.808 444.111ZM588.519 661.878C619.778 662.681 667.041 654.158 693.272 636.721C692.691 635.283 692.138 633.017 690.874 632.083C690.826 632.047 690.757 632.056 690.698 632.043C671.945 642.407 652.191 648.734 631.107 652.363C623.125 653.737 590.187 656.132 586.071 659.23C585.996 659.831 585.747 660.255 586.191 660.746C586.822 661.444 587.653 661.596 588.519 661.878ZM573.005 532.391C594.496 533.381 618.712 529.216 638.374 520.254C641.169 518.98 645.177 517.425 647.4 515.286C647.925 514.781 648.178 514.191 648.431 513.526C648.222 512.428 648.048 511.829 647.363 510.939C632.727 517.779 617.282 522.73 601.397 525.671C595.933 526.632 574.642 527.742 571.842 531.031C572.226 531.648 572.427 531.918 573.005 532.391Z"/>
	<path transform="scale(0.725322 0.725322)" d="M401.818 398.806C401.989 398.882 402.162 398.949 402.329 399.032C403.521 399.631 404.359 399.856 404.616 401.292C404.964 403.242 404.093 405.99 403.488 407.864C395.467 432.72 386.196 457.306 377.705 482.022C365.144 518.98 352.355 555.859 339.339 592.658C336.083 601.926 328.616 628.702 323.566 635.125C323.521 635.111 323.474 635.102 323.432 635.081C322.282 634.536 321.525 634.359 321.235 632.992C320.91 631.466 321.584 629.385 322.035 627.929C323.185 624.206 324.924 620.602 326.27 616.939C328.598 610.603 330.679 604.16 332.843 597.766L374.439 477.318C380.367 459.314 386.435 441.357 392.643 423.448C395.519 415.273 398.124 406.635 401.818 398.806Z"/>
	<path transform="scale(0.725322 0.725322)" d="M738.259 838.015C739.672 838.158 741.266 838.233 742.44 839.127C743.632 840.036 744.336 842.099 744.505 843.555C744.812 846.2 743.393 848.792 741.777 850.767C729.936 865.246 691.297 877.65 672.671 879.262C671.633 879.151 670.545 879.063 669.533 878.804C668.248 878.475 667.182 877.392 666.586 876.244C665.867 874.859 665.9 873.278 666.51 871.868C668.796 866.58 676.964 865.207 681.942 863.849C694.476 860.429 706.666 856.404 717.972 849.877C724.721 845.98 730.913 840.727 738.259 838.015ZM673.071 874.747C692.647 871.748 713.073 865.501 729.708 854.449C732.801 852.393 736.506 849.918 738.804 846.963C739.647 845.88 739.889 845.288 739.816 843.936C739.167 843.289 738.993 843.101 738.093 842.807C727.725 849.674 717.356 856.104 705.872 860.998C701.907 862.698 697.852 864.181 693.727 865.441C688.828 866.937 673.349 869.487 670.756 873.214L671.276 874.356L673.071 874.747Z"/>
	<path transform="scale(0.725322 0.725322)" d="M473.119 719.686C482.989 718.629 493.691 719.336 503.633 719.353C559.484 719.453 616.882 724.74 671.168 737.991C677.319 739.492 698.843 743.648 702.11 749.029L701.846 749.705C698.715 750.806 696.13 749.835 693.105 748.909C643.103 734.128 591.982 727.003 539.944 724.965C528.181 724.482 516.41 724.22 504.638 724.181C498.517 724.181 492.376 724.161 486.258 724.348C479.962 724.541 472.503 726.133 466.384 724.32C465.664 724.107 465.124 723.792 464.539 723.33L464.531 722.422C466.932 720.122 469.989 720.065 473.119 719.686Z"/>
	<path transform="scale(0.725322 0.725322)" d="M615.053 418.088C617.14 417.782 619.418 417.63 621.216 418.942C622.503 419.881 623.566 422.194 623.646 423.746C623.745 425.68 622.658 427.335 621.301 428.594C617.689 431.947 612.107 433.818 607.517 435.36C589.456 441.425 571.08 443.428 552.124 443.268C551.247 443.166 550.353 443.062 549.496 442.843C547.314 442.284 544.602 440.541 543.701 438.381C543.237 437.269 543.063 436.165 543.648 435.056C544.939 432.61 548.171 431.539 550.66 430.891C559.027 428.711 568.509 429.082 577.099 427.713C590.13 425.635 602.402 421.671 615.053 418.088ZM551.832 438.906C570.328 439.46 595.941 437.119 612.504 428.326C614.365 427.338 617.015 425.959 618.397 424.386C618.739 423.996 618.769 423.842 618.939 423.417C617.789 422.43 617.684 422.537 616.145 422.496C601.7 427.386 587.358 430.996 572.239 433.061C565.47 433.985 557.698 433.76 551.142 435.414C549.968 435.711 549.285 435.856 548.644 436.933C549.324 438.122 550.624 438.422 551.832 438.906Z"/>
	<path transform="scale(0.725322 0.725322)" d="M650.635 906.519C651.825 906.756 652.62 907.299 653.642 907.922C653.604 909.169 653.742 909.333 652.774 910.187C647.738 914.631 634.137 916.76 627.545 918.263C569.404 931.515 515.141 931.675 456.12 927.308C455.754 927.156 455.291 926.983 454.976 926.749C453.936 925.977 453.833 925.552 453.611 924.368C454.401 923.323 454.981 922.894 456.315 922.66C460.952 921.846 474.557 924.169 480.264 924.494C492.004 925.163 503.874 925.891 515.631 925.946C557.221 926.141 611.446 920.801 650.635 906.519Z"/>
	<path transform="scale(0.725322 0.725322)" d="M579.192 159.748C580.341 160.179 581.59 160.485 582.148 161.701C582.862 163.259 582.805 165.49 582.865 167.194C583.096 173.817 582.539 180.495 582.587 187.131C582.668 198.391 584.553 255.713 581.762 263.955C580.513 263.463 579.684 262.994 578.613 262.147C577.944 260.819 577.874 259.518 577.806 258.062C577.528 252.015 577.919 245.8 577.988 239.736C578.079 228.946 578.102 218.156 578.055 207.366C578.032 198.314 577.954 189.263 577.823 180.212C577.754 174.427 577.423 168.43 577.918 162.667C578.028 161.382 578.3 160.728 579.192 159.748Z"/>
	<path transform="scale(0.725322 0.725322)" d="M353.011 746.505C353.463 746.427 353.504 746.406 354.038 746.394C355.23 746.368 356.451 746.395 357.367 747.226C357.041 750.66 349.689 753.484 346.742 754.614C327.32 762.068 308.112 770.343 292.309 784.296C291.864 784.46 291.249 784.712 290.785 784.756C289.457 784.885 288.987 784.616 288.039 783.839C287.909 782.936 287.939 782.486 288.277 781.609C290.978 774.615 324.441 758.234 332.513 754.642C339.23 751.653 346.137 749.103 353.011 746.505Z"/>
	<path transform="scale(0.725322 0.725322)" d="M369.36 903.86C378.045 906.037 386.229 910.064 394.952 912.116C399.02 913.073 406.728 912.865 409.699 915.894C410.183 917.322 409.757 918.262 409.309 919.621C402.67 918.89 372.541 912.683 369.422 907.507C368.535 906.035 368.974 905.381 369.36 903.86Z"/>
	<path transform="scale(0.725322 0.725322)" d="M563.464 205.154C564.839 205.331 565.535 205.36 566.626 206.299C569.019 212.221 567.852 235.789 566.85 242.652L565.209 243.303C563.986 242.863 563.782 242.754 563.183 241.493C561.398 237.737 562.165 209.492 563.464 205.154Z"/>
	<path transform="scale(0.725322 0.725322)" d="M512.927 44.242C532.938 43.2235 579.907 49.0146 594.511 62.2731C597.069 64.5957 598.906 67.6053 598.951 71.1409C599.002 75.2336 596.762 78.9515 593.981 81.7904C576.193 99.9435 526.659 100.835 502.375 100.903C480.751 100.389 438.529 97.9301 422.317 83.2416C419.339 80.5439 417.248 77.1667 417.081 73.0726C416.936 69.4932 418.699 66.3955 421.111 63.8717C437.662 46.5577 490.001 44.6484 512.927 44.242ZM517.876 95.6056C538.506 95.0332 576.187 93.0828 590.939 77.5738C592.449 75.9862 594.96 73.3184 594.58 70.9023C594 67.2143 588.876 63.9841 585.854 62.3764C563.63 50.5534 523.9 48.1633 498.781 49.7179C481.044 50.8463 436.496 53.4474 424.478 67.3986C423.135 68.9571 422.14 70.8705 422.262 72.9798C422.425 75.7896 424.411 78.1397 426.502 79.8379C443.658 93.7723 495.782 97.2458 517.876 95.6056Z"/>
</svg>
