<?xml version="1.0" encoding="utf-8" ?>
<svg xmlns="http://www.w3.org/2000/svg" xmlns:xlink="http://www.w3.org/1999/xlink" width="210" height="210">
	<circle cx="63" cy="127" r="25" fill="rgba(173, 216, 230, 0.7)"/>
	<path fill="#222122" transform="scale(0.104929 0.104929)" d="M589.792 792.861C594.115 793.068 599.135 793.082 602.671 795.994C611.67 803.403 611.319 823.774 615.189 834.545C618.431 843.569 622.946 852.385 627.338 860.907C679.808 962.711 747.832 1050.82 787.845 1160.16C798.287 1188.69 807.045 1218.2 810.716 1248.44C817.664 1305.68 798.238 1361.06 762.905 1405.89C722.479 1457.19 670.174 1477.56 606.963 1485.17C554.09 1486.43 503.277 1470.55 462.167 1436.79C417.457 1400.73 389.145 1348.19 383.616 1291.02C370.134 1152.87 496.385 992.118 558.711 874.124C564.255 863.628 569.935 852.801 573.546 841.47C578.963 824.472 577.883 807.346 589.792 792.861ZM599.619 1462C650.146 1459.23 699.824 1441.49 734.349 1403.19C767.565 1366.35 789.554 1314.25 786.753 1264.18C780.129 1145.79 694.599 1030.79 637.66 930.809C628.537 914.789 604.27 862.498 595.107 853.177C578.016 892.531 555.829 929.07 533.974 965.892C500.288 1022.65 465.826 1079.17 439.308 1139.75C424.852 1172.78 412.235 1207.39 407.878 1243.36C403.995 1275.42 407.428 1307.93 419.405 1338.02C437.9 1384.49 474.257 1425.18 520.552 1445.04C545.049 1455.55 572.851 1462.36 599.619 1462Z"/>
	<path fill="#222122" transform="scale(0.104929 0.104929)" d="M730.99 1227.36C734.837 1227.52 737.793 1227.5 740.676 1230.55C748.233 1238.55 746.509 1258.82 746.067 1269.04C744.202 1312.13 728.339 1352.25 695.924 1381.46C667.076 1407.46 628.606 1419.78 590.028 1417.51C546.281 1414.95 509.275 1394.48 480.524 1361.94C480.299 1361.71 480.063 1361.48 479.848 1361.24C476.439 1357.37 473.42 1353.04 473.931 1347.64C474.179 1345.02 475.322 1343.84 477.185 1342.19C485.861 1341.37 495.346 1356.6 500.537 1362.35C516.998 1380.58 544.25 1393.79 567.847 1399.42C601.973 1407.51 637.911 1401.84 667.894 1383.65C704.405 1361.09 728.615 1318.5 730.043 1275.65C730.57 1259.83 726.955 1244.31 730.681 1228.62L730.99 1227.36Z"/>
	<path fill="#222122" transform="scale(0.104929 0.104929)" d="M642.772 1026.67C644.746 1026.93 646.998 1027.15 648.805 1028.03C665.084 1035.98 716.362 1143.48 723.309 1164.49C725.199 1170.21 724.501 1173 721.82 1178.26C719.696 1178.66 717.561 1178.8 715.448 1178.17C708.633 1176.15 703.118 1159.57 700.614 1153.4C691.25 1130.31 680.784 1108.56 668.48 1086.88C661.339 1074.29 653.006 1062.17 646.496 1049.26C642.23 1040.8 639.702 1036.07 642.772 1026.67Z"/>
</svg>
